<?xml version="1.0" standalone="no"?>
<!DOCTYPE svg PUBLIC "-//W3C//DTD SVG 1.1//EN" "http://www.w3.org/Graphics/SVG/1.1/DTD/svg11.dtd" >
<svg xmlns="http://www.w3.org/2000/svg">
<metadata></metadata>
<defs>
<font id="HaloHandletterRegular" horiz-adv-x="819" >
<font-face units-per-em="2048" ascent="1638" descent="-410" />
<missing-glyph horiz-adv-x="286" />
<glyph horiz-adv-x="0" />
<glyph horiz-adv-x="0" />
<glyph unicode="&#xd;" horiz-adv-x="0" />
<glyph unicode=" "  horiz-adv-x="286" />
<glyph unicode="&#x09;" horiz-adv-x="286" />
<glyph unicode="&#xa0;" horiz-adv-x="286" />
<glyph unicode="!" horiz-adv-x="235" d="M22.5 56q2.5 25 16.5 49t43 22l-2 -2q29 -2 44 -23.5t14 -38t-16.5 -36t-41.5 -17.5q-27 2 -43.5 11.5t-14 34.5zM45 316.5q4 56.5 7 107.5t6 98t5.5 97.5t5.5 113.5t11 133t16 132q13 105 24 168t32.5 81.5t37.5 16.5q14 -4 20.5 -33t3.5 -56.5t-10 -70.5t-16 -98 q-23 -129 -32.5 -218.5t-17 -142.5t-12.5 -105q-11 -113 -11 -225v-2q0 -6 1 -18t-2 -23q-7 -29 -32 -22q-41 10 -37 66.5z" />
<glyph unicode="&#x22;" horiz-adv-x="323" />
<glyph unicode="#" horiz-adv-x="763" d="M-16 434q0 67 68 114q62 42 120 38q129 -10 188.5 -77t75.5 -159q27 105 80 217l2 -2q23 46 47 37.5t24.5 -32t-21.5 -66.5q-43 -83 -83 -207q192 38 251 21q41 -11 45.5 -24t-6.5 -21.5t-25.5 -3.5t-64.5 3t-105.5 -11t-106.5 -17q-10 -47 -17 -96.5t-13.5 -86 t-11.5 -55t-21 -15.5t-21.5 18.5t-5.5 37t3 46t5 47l4 45t2 42.5q-57 -8 -112.5 -6t-106.5 14.5t-94 36.5q-100 57 -100 162zM51 444.5q-4 -47.5 21.5 -81t73.5 -55.5q106 -48 247 -27v2q-14 121 -81 194q-53 57 -112.5 61.5t-102 -21t-46.5 -73z" />
<glyph unicode="$" horiz-adv-x="512" d="M39 662q-8 6 2 21t40 4q168 -62 262 -9q44 24 48 59t-21.5 53.5t-64.5 31t-85 22.5t-85 24q-91 34 -84 101q5 77 122 129q30 14 56 22l9 201q2 23 11 31t19 6q23 0 23 -48q0 -18 -4 -75t0 -96q53 16 83 16h56q16 0 37.5 -7t17.5 -22q-8 -29 -46 -23.5t-91 -1.5t-102 -25 q-120 -42 -131 -105q-10 -49 85 -72q25 -6 56 -13t68.5 -17.5t65.5 -26.5q62 -34 58 -96t-49 -92.5t-102 -37.5q0 -4 2 -8q-8 -32 -8 -94v-70q0 -10 -2 -18t-19 -2q-16 4 -20 26.5t-6 34.5l-2 65v62q-47 0 -98.5 7.5t-100.5 42.5z" />
<glyph unicode="%" horiz-adv-x="792" />
<glyph unicode="&#x26;" horiz-adv-x="1255" d="M4 264q7 198 379 389q-68 111 -64 224q6 82 51.5 146t109.5 106q136 88 278 75q91 -8 156 -62q67 -57 63 -128.5t-50 -125.5t-116 -99.5t-156 -85t-170 -78.5q43 -49 97.5 -95.5t100.5 -87.5t83 -67q57 10 114.5 14t101.5 7t79 3t65 -8q67 -18 70 -67q4 -64 -117 -152 q85 -49 142 -84h-2q14 -10 15 -23.5t-10 -22.5q-27 -24 -95 12t-119 71q-202 -120 -428 -157q-129 -22 -246 -1t-182 53q-154 76 -150 244zM72 246q-7 -115 106 -170q78 -37 230 -47q73 -7 173 10q204 36 367 125l-198 145q-68 -14 -108 -28.5t-75 -24.5h2q-6 -2 -20 -9 t-20.5 1t0 30.5t16.5 26.5q77 35 143 53q-70 53 -140.5 111.5t-123.5 128.5q-340 -160 -352 -352zM393 891q-11 -107 53 -209h-2q86 41 167 77t145 73q143 80 153 180q6 59 -43 96t-119 41t-131 -15.5t-109 -54.5q-106 -77 -114 -188zM836 324q47 -33 93 -60.5t93 -56.5h-2 q125 81 121 102q-11 34 -81 30q-18 -1 -52 -2q-55 -2 -172 -13z" />
<glyph unicode="'" horiz-adv-x="192" d="M8 938q2 4 16.5 41t33.5 81q56 124 65 136h2q16 23 23.5 26t22.5 -14q30 -35 7 -65q-52 -116 -73 -156.5t-27 -56.5q-29 -61 -55 -41q-23 19 -15 49z" />
<glyph unicode="(" horiz-adv-x="290" d="M17 549q3 164 22.5 280.5t47.5 220.5q57 211 122 316q10 20 37 12q26 0 26 -66q0 -14 -15.5 -47.5t-45 -125.5t-55.5 -193q-58 -230 -61 -343t1 -200.5t18 -168.5q28 -172 105 -336q8 -14 -11 -28.5t-36.5 -2.5t-26.5 27q-78 137 -104.5 314t-23.5 341z" />
<glyph unicode=")" horiz-adv-x="243" d="M12 -70q105 254 125 635q18 406 -100 762q-4 16 -4 30.5t10 23.5t21.5 9.5t20.5 -6.5q25 -17 28 -34q75 -322 90 -408q32 -193 0 -515q-28 -281 -146 -523q-21 -48 -41 -27q-18 19 -4 53z" />
<glyph unicode="*" horiz-adv-x="460" />
<glyph unicode="+" horiz-adv-x="532" d="M27 453.5q10 7.5 15 7.5t24.5 4t47.5 9q63 11 134 15q-10 131 -6 146q0 23 1 34t22 27t28.5 6t7.5 -15t4 -22.5t9 -44.5q6 -34 18 -126q108 0 132 -7.5t31 -19.5t11 -27q9 -33 -43 -26q-19 3 -131 -2q5 -108 -3.5 -139.5t-21 -38.5t-26.5 -11t-22.5 4.5t-5.5 31.5 q4 30 -1 149q-143 -10 -162 -8.5t-30 2.5t-27 22.5t-6 29z" />
<glyph unicode="," horiz-adv-x="159" d="M-94 -174q-30 19 6 70q6 8 31.5 42.5t54.5 73.5q75 101 78 107h2q18 25 30 11q34 -40 25.5 -58.5t-14.5 -27.5t-27.5 -38t-47.5 -62.5t-48.5 -64.5t-28.5 -39q-27 -43 -61 -14z" />
<glyph unicode="-" horiz-adv-x="522" d="M33 424q-22 30 12 39q4 0 23.5 4t47.5 9q51 9 134 16l114 2q55 0 97 -7q27 -8 34 -20q36 -62 -32 -53q-27 3 -141 -3q-219 -10 -234.5 -11t-27 1t-27.5 23z" />
<glyph unicode="." horiz-adv-x="155" d="M20 72q0 27 19.5 43t44.5 14v-2q23 -2 38 -17.5t15 -39t-21.5 -39t-45.5 -14.5q-50 2 -50 55z" />
<glyph unicode="/" horiz-adv-x="1003" />
<glyph unicode="0" horiz-adv-x="1122" d="M6 590q23 292 195 481q161 177 389 223q12 4 34.5 -2t20.5 -28q0 -27 -53 -27q-98 -16 -188.5 -79.5t-160 -156t-111.5 -205t-40 -218t22.5 -194.5t67.5 -160q104 -155 316 -181q78 -10 169 21.5t171 104.5q182 166 204 460q14 191 -64 356q-93 195 -263 195 q-136 0 -291 -146q-13 -13 -30 -10q-34 8 -11 39q57 80 132 127t181 51t187.5 -50t135.5 -145q114 -190 97 -434q-19 -297 -217 -484q-88 -83 -194.5 -124t-205.5 -37t-191.5 44t-163.5 117q-158 173 -136 462h-2z" />
<glyph unicode="1" horiz-adv-x="253" d="M68 981l2 2q22 89 43.5 145.5t37 66t31 10.5t27.5 -6t12 -17q-45 -201 -82 -641q-10 -107 -10 -266.5t4 -241.5q0 -6 -9 -10.5t-20 -0.5q-30 8 -30 44q2 78 4 298t33 560q-16 10 -33 19t-10 38z" />
<glyph unicode="2" horiz-adv-x="966" d="M10 53h2q-4 51 42 77q59 32 229 28q8 0 53 31.5t109.5 89t138 135.5t138.5 172q150 220 161 424q0 54 -40 98q-77 86 -170 85t-164 -23.5t-123 -58.5t-88 -79t-58 -84q-37 -71 -40 -106t-2 -51.5t10 -32.5q21 -35 69.5 -36t82.5 22q61 41 121 122q17 23 30 15 q23 -13 9 -50q-10 -14 -28.5 -43.5t-47.5 -59.5q-76 -76 -170 -73q-73 0 -116 61q-36 48 -31.5 109t49.5 140t118 148q172 162 374 151q113 -6 173 -49.5t85 -92.5q32 -61 30 -146t-35.5 -174t-85 -172t-115 -157t-126.5 -137q-125 -122 -215 -182h14q176 0 379 -76 q74 -27 117 -50l43 -22q25 -35 7.5 -51t-42.5 -4t-67 28.5t-92 34.5q-187 70 -372 75q-34 1 -58 2l-25 1q-119 -59 -194 -71.5t-79 32.5z" />
<glyph unicode="3" horiz-adv-x="958" d="M0 143.5q0 12.5 5 22.5q12 24 24 24t11 -7t13 -23q72 -58 170.5 -84.5t175.5 -26.5q264 -3 404 137q55 56 75.5 107t21.5 88.5t-15.5 82t-42.5 76.5q-43 52 -133 95q-82 -49 -161 -73.5t-125 -20.5t-86 19t-43 55.5t20.5 62.5t60.5 36q82 29 175.5 24t168.5 -31 q78 60 121 153q32 67 33 125.5t-19 100.5t-54 64q-51 32 -173.5 32t-212.5 -42t-142.5 -98.5t-74 -112t-23.5 -80t-12 -33.5t-20.5 -6t-18.5 15.5t-6 30.5q15 150 138 258q140 122 413 146q98 5 183 -61q103 -80 103 -218q0 -162 -180 -301q104 -57 152.5 -146.5 t42.5 -177.5t-52.5 -161.5t-120.5 -124.5q-152 -107 -356 -95q-182 9 -330 79q-53 24 -78 44l-24 21q-8 12 -8 24.5zM391 631q0 -17 43 -17l51 2q90 12 158 43h-2q-86 24 -127 19q-45 2 -85 -12.5t-38 -34.5z" />
<glyph unicode="4" horiz-adv-x="927" d="M31 502q31 47 61 94q73 111 135 190q139 165 422 418q80 69 147 28q29 -18 43.5 -48.5t8.5 -61.5q-29 -137 -63.5 -296.5t-49 -262t-17.5 -130t-7 -52.5q170 -9 201.5 -17t49.5 -16q39 -18 35 -41q-4 -20 -29.5 -21t-95 7t-172.5 14q-10 -85 -10 -146q0 -91 12 -173 q2 -14 -10 -15.5t-28 7.5q-41 22 -41 55q-9 163 -5 278q-137 6 -257.5 7.5t-202.5 8.5t-118 61t-9 112zM126 511q-71 -95 42 -105q124 -11 209.5 -14t137.5 -5t110 -4v2q6 59 40 248q70 399 78.5 454.5t2.5 61.5q-10 12 -57.5 -19.5t-99.5 -72.5t-97 -84 q-63 -59 -138.5 -149.5t-96.5 -121t-41 -60.5q-48 -74 -90 -131z" />
<glyph unicode="5" horiz-adv-x="923" d="M16 79q11 24 33 13q4 -2 23.5 -12t54.5 -22q84 -27 172 -27t167 18.5t152 64.5q174 111 195 328q2 14 -2 63.5t-30.5 105t-84 99.5t-144.5 47t-141.5 -11.5t-93 -35t-62.5 -40t-35 -27.5t-29.5 -10t-36.5 2q-41 9 -40 59.5t10 117.5t21.5 128t22.5 109.5t15 75t11.5 43 t17.5 22.5t30.5 8t40 8t58.5 12.5t99.5 11.5t142.5 7t146.5 -1t69.5 -14.5t1 -23.5t-19.5 -23.5t-29 -13.5t-43 -3t-75.5 -2t-96.5 -3t-97.5 -4t-78.5 -3t-57.5 -5t-30 -14.5t-10 -25.5t-10 -32.5t-11 -40.5q-18 -73 -35 -173.5t-14.5 -120t12.5 -17.5t20 11t35 24.5 t65 31.5q106 44 212 40.5t177.5 -53.5t110.5 -113.5t51 -125.5q27 -132 -41 -278q-95 -205 -309 -272q-105 -32 -189.5 -28.5t-143 16t-94.5 26.5q-102 40 -83 83z" />
<glyph unicode="6" horiz-adv-x="1015" d="M25 430q6 296 197 517q151 175 386 251q172 55 305 23q35 -12 31 -32q-5 -23 -17 -40q-27 -43 -60.5 -26t-81.5 20.5t-113 -11.5q-155 -38 -310 -157q-160 -122 -226 -343q-19 -61 -25 -116q69 142 209 237q148 101 290 93q178 -11 278 -130q87 -103 82 -222.5 t-57.5 -213.5t-130 -163.5t-173 -107.5t-189.5 -31t-169 45t-126 99q-110 130 -100 308zM109 342q28 -206 191 -278q58 -25 143 -29t166 31.5t143 97.5q133 136 137 319q7 187 -141 259q-50 24 -129.5 28t-169 -27.5t-161 -87t-116.5 -130t-49 -156.5q0 -16 -14 -27z" />
<glyph unicode="7" horiz-adv-x="868" d="M0 985q0 39 14 87q17 61 49 142q6 23 19.5 2.5t15.5 -73.5q122 84 346 84h2l339 -10q59 0 101 13q17 5 26 -21t-10 -49q-114 -138 -204 -283.5t-151 -247t-92 -158.5t-64 -129q-77 -168 -115 -324q4 -10 -4 -16t-22 -6q-69 0 -32 124q68 229 216 494q94 175 195.5 325.5 t119 172.5t9.5 26.5t-29 2.5l-272 8q-167 0 -224 -16.5t-89.5 -41t-63.5 -69.5q-10 -37 -16.5 -56.5t-34.5 -19.5q-29 0 -29 39z" />
<glyph unicode="8" horiz-adv-x="1050" d="M-8 303q0 209 362 494q-236 125 -225 245q11 129 153 216q217 133 497 28q104 -39 182 -123q235 107 245 43q5 -36 -43 -51q-86 -31 -147 -55q14 -24 22 -43v-2q0 -20 -7 -27.5t-20 -14.5q-32 -17 -50 1q-6 6 -3 10t7 10t4 14q0 4 -15 27q-180 -79 -324 -179 q-46 -32 -112 -75l162 -88q260 -147 260 -379q-2 -111 -66.5 -189.5t-152.5 -126.5t-180 -68.5t-150 -14.5q-209 23 -304 117t-95 231zM82 295q-7 -133 104 -203q90 -56 240 -61q159 -8 302 93q63 44 103.5 102.5t45 116.5t-22.5 113.5t-73 102.5q-92 94 -236 152l-117 49 q-145 -112 -209 -191q-134 -164 -137 -274zM217 1068q-2 -36 16.5 -66.5t48.5 -55.5q48 -40 156 -88q27 18 75 51t109 72q159 101 273 156v-2q-74 71 -131 90.5t-102.5 24.5t-102.5 10q-109 8 -226 -56q-50 -28 -82 -64t-34 -72z" />
<glyph unicode="9" horiz-adv-x="948" d="M4 791.5q10 103.5 54 196.5t118 156q153 132 402 124q166 -6 274 -43l2 12h2q7 35 44.5 18.5t38.5 -26.5t-15.5 -55.5t-29.5 -91.5t-22.5 -99t-20.5 -129t-41 -259.5t-37 -348t-1 -209.5t1 -53.5t-13 -10.5q-15 -4 -35 9q-35 16 -37 65v50q0 238 23 409 q-124 -72 -263 -98q-110 -20 -222 25q-144 57 -202 187q-30 68 -20 171.5zM98 784q-24 -201 116 -284q50 -29 130 -29q213 0 377 131q4 19 4 41q8 55 21.5 116.5t26.5 124.5q28 133 52 228q-91 84 -305 84q-94 0 -170 -34t-122 -80q-103 -103 -130 -298z" />
<glyph unicode=":" horiz-adv-x="163" d="M25 403q2 14 15 36t42 22h2q29 0 40 -18.5t11 -34.5t-14.5 -37t-43 -20t-40.5 19.5t-12 32.5zM30 78q-1 8 3 19.5t11 22.5q16 25 48 25q51 -6 51 -67q-2 -14 -21.5 -29.5t-42 -14.5t-35.5 18.5t-14 25.5z" />
<glyph unicode=";" horiz-adv-x="169" d="M-86 -134.5q8 19.5 11 25t23.5 36t46 67.5t49.5 69.5t36 43.5t21.5 1t19.5 -21t7 -21.5t-9 -22.5t-27.5 -44t-47.5 -68.5t-47.5 -67.5t-30.5 -39t-17 -9t-27 15q-16 16 -8 35.5zM17 418.5q1 15.5 16.5 40t45.5 22t45 -21.5t14 -35t-20.5 -33.5t-42 -18.5t-41 15 t-17.5 31.5z" />
<glyph unicode="&#x3c;" />
<glyph unicode="=" horiz-adv-x="532" d="M33 424q-22 30 12 39q4 0 23.5 4t47.5 9q51 9 134 16l114 2q55 0 97 -7q27 -8 34 -20q36 -62 -32 -53q-27 3 -141 -3q-219 -10 -234.5 -11t-27 1t-27.5 23zM57 246q-19 31 15 39q6 0 56 8t122 12l116 2q72 0 98 -6t32 -10t10 -19q4 -14 -6.5 -27.5t-34.5 -10t-76.5 0 t-108.5 -7.5q-142 -10 -163 -9t-32 3t-28 25z" />
<glyph unicode="&#x3e;" />
<glyph unicode="?" horiz-adv-x="919" d="M-10 880q4 34 26 60v-2q249 283 615 303q111 4 193 -69q81 -71 81 -187q0 -121 -119 -220q-75 -62 -211 -124q-51 -25 -99 -45.5t-88 -47.5q-90 -59 -103 -153q-7 -38 20 -65q4 -4 2 -11q-8 -12 -20.5 -12t-26.5 6q-29 16 -33 48t-1 73t30 80t70 72q67 50 158 90 t145.5 72t100.5 72q108 94 108 190q0 77 -60 120q-51 35 -145 34t-174 -23.5t-144.5 -57t-119 -82t-92.5 -84.5t-57 -63.5t-34.5 -21t-19.5 18.5t-2 29zM225 90q2 24 26 38.5t40.5 10.5t30.5 -22.5t11 -40.5q-6 -47 -52 -47q-20 0 -39 18.5t-17 42.5z" />
<glyph unicode="@" />
<glyph unicode="A" horiz-adv-x="1505" d="M-100 252q-1 3 -1 6q0 6 3 12q6 19 28.5 18t30.5 -24h2q15 -100 87 -162q35 -29 90 -29h4q58 1 105.5 24.5t93.5 62.5q73 62 173 196l-170 -28q-14 -6 -26 -6q-31 0 -37 24q-7 29 18 39q10 6 35 10t61.5 11.5t81.5 14.5t94 15q29 45 55.5 87t63.5 99.5t92 163.5 q105 198 180 364l31 67q4 8 6.5 21t8.5 24q13 25 56 25h4q46 -1 63.5 -6t25.5 -19q10 -16 10 -109q7 -313 101 -670h70q74 0 76.5 -13t-8.5 -25.5t-30.5 -23.5t-31.5 -11l-54 -4q91 -311 191 -486q3 -3 3 -7q0 -5 -6 -10q-10 -9 -27 -15q-17 -5 -30 -5q-26 0 -41 19 q-82 89 -186 504q-61 -2 -139 -4.5t-151 -5.5q-129 -5 -273 -23q-157 -238 -335 -338q-67 -37 -137 -37h-13q-78 4 -128 44q-97 77 -120 210zM682 453q92 12 137 14t82 4t82 3q56 1 197 7q-46 192 -78 373t-47 276z" />
<glyph unicode="B" horiz-adv-x="1419" d="M-272 1087q-1 5 -1 10q0 18 17 38q25 25 191 70q354 96 683 112q61 3 118 3q281 0 436 -75q81 -39 113 -88q30 -46 31 -88q0 -3 -1 -5q-2 -44 -25.5 -80t-60.5 -66q-44 -37 -118 -78q-98 -54 -226 -92l16 -3q376 -56 481 -223q31 -49 31 -98q0 -57 -42 -112 q-91 -122 -335 -216q-230 -88 -546 -126q-144 -18 -247 -18h-11q-106 1 -144.5 10t-61.5 22q-40 25 -40 55q0 27 32 43q0 -21 19 -25q10 -4 113 -8q0 331 18 594q-60 5 -60 18q0 1 1 3q6 30 65 57q14 195 28.5 304.5t16.5 162.5q-269 -43 -438 -115q-18 -8 -19 -16 q0 -6 5 -10q-29 -7 -39 40zM250 49q266 0 413.5 33t254 63.5t192.5 72.5q189 92 207 235q1 6 1 12q0 101 -190 163q-176 57 -448 66q-239 -53 -388 -53h-34q-15 -189 -15 -363q0 -118 7 -229zM266 750q32 8 68 8q98 12 220 12q71 0 151 -4q181 48 302 103t177 99 q51 40 52 79q0 4 -1 8q-6 43 -56.5 77.5t-130.5 57.5q-153 43 -314 43q-32 0 -63 -2q-194 -10 -327 -27q-47 -179 -78 -454z" />
<glyph unicode="C" horiz-adv-x="1447" d="M-9 412q5 122 48 227.5t116.5 201t174 176.5t217.5 141q230 116 474 116h32q222 0 301 -115q22 -33 22 -92.5t-46 -122.5t-104 -114q-66 -56 -171 -119q-46 -27 -74 -27h-9q-28 6 -40 29t2 30t45 17v-2q170 75 264 188q49 58 54 148q1 18 -19 40q-54 58 -200 64 q-24 1 -47 1q-119 1 -219 -23q-120 -28 -228.5 -83t-199.5 -129.5t-160 -161.5q-142 -181 -150 -374q0 -8 -1 -44q0 -4 -1 -8q0 -33 8 -78q8 -50 29.5 -107.5t68.5 -106.5q109 -114 322 -121q20 -1 41 0q207 0 445 91q209 81 390 220q19 19 29 -4q2 0 -6 -26.5t-60 -71.5 q-8 -8 -78.5 -55t-182.5 -99q-277 -129 -515 -129q-132 0 -252 39q-206 68 -285 264q-36 88 -36 194q0 12 1 26z" />
<glyph unicode="D" horiz-adv-x="1327" d="M-84 1020q-5 8 -5 17q0 24 35 49q19 14 38.5 23t23.5 11t70.5 35t181.5 71q278 92 552 92q27 0 54 -1q232 -7 366 -88q143 -86 158 -246q3 -39 3 -65q-7 -216 -173 -419q-100 -124 -220.5 -212.5t-226 -138.5t-209.5 -80q-175 -51 -404 -66q-7 -1 -13 -1q-19 -1 -27 9 q-12 12 -14 25q0 -6 -3 0t-3 14q0 24 28 21.5t53.5 -2.5t54.5 4q-23 102 -23 241q0 108 14 238q20 178 38 304t28 198.5t16 107.5q-150 -48 -287 -121l-22 -12q-16 -14 -24.5 -25.5t-20.5 -15.5q-19 -6 -39 33zM303 266q3 -129 21 -184q199 34 420 144q378 191 518 484 q51 106 56 204q1 13 1 25q0 81 -29 129q-33 56 -94 95q-119 76 -336 80q-23 1 -46 1q-197 0 -417 -54v-2q-42 -111 -65 -367q-22 -255 -26 -367q-3 -77 -4 -138q0 -27 1 -50z" />
<glyph unicode="E" horiz-adv-x="1515" d="M2 272q4 117 123 236q108 108 299 199q-156 9 -218 38q-64 29 -90 61q-25 30 -24 72v7h2q4 117 200 232q175 102 444 165q231 54 428 54q26 0 51 -1q152 -7 221 -59q48 -36 48 -76q0 -42 -31 -72q-30 -30 -69 -52q-54 -32 -112 -50q-34 -10 -54 -11q-13 0 -20 5 q-16 12 -24.5 24.5t-2 17.5t16.5 9t22.5 6t18.5 4q88 23 130 59t42 46t-5 21.5t-26 21.5q-45 21 -175 27q-33 1 -66 1q-95 0 -184 -12q-120 -16 -233.5 -46t-214 -69.5t-175.5 -81.5q-164 -93 -164 -161q0 -126 368 -137q281 106 560 118q14 1 27 1q89 0 89 -31 q0 -37 -124 -78q-104 -33 -136 -33t-62 -3t-74 -7q-83 -8 -214 -12q-259 -79 -402 -233q-59 -62 -83.5 -115.5t-24.5 -79.5t15.5 -70.5t67.5 -88.5q131 -111 411 -118q23 -1 46 0q287 0 554 81q112 34 176.5 63.5t83 42t27 6t-16.5 -30.5q-178 -140 -499 -214 q-136 -31 -309 -31q-36 0 -75 1q-201 5 -362 80q-201 94 -201 263v11z" />
<glyph unicode="F" horiz-adv-x="933" d="M-96 1178q4 27 23.5 26.5t47 -0.5t61.5 2t87 6.5t132 10.5t202 18q6 19 15 33q8 12 20 12h4q23 -2 26 -41q315 31 462 31h14q146 -2 290 -8q42 -2 68 -18q25 -15 24 -32q0 -28 -49 -28q-23 -2 -47 2h-307q-114 0 -449 -23v-30l-39 -498q72 2 133 2q126 0 182 -4l27 -2 q103 0 103 -41q0 -25 -75 -25h-13q-68 0 -128 -2t-121.5 -3t-109.5 -3q-8 -122 -8 -194q-7 -83 -7 -139q0 -38 4 -62q8 -62 12.5 -92.5t11 -44t-1.5 -19.5t-27.5 -6t-40.5 20q-53 47 -53 159q1 11 1 21q6 130 7.5 213t3.5 140q-191 -12 -247 -19t-85.5 -9.5t-33.5 21.5t7 31 t46.5 12t71.5 11t70 12q66 10 177 17l2 18q0 8 3 35t6.5 62.5t7.5 78.5q8 81 26 310v8q0 8 2 14q-130 -9 -282 -22q-66 -5 -115 -5q-145 0 -141 44z" />
<glyph unicode="G" horiz-adv-x="1503" d="M14 486q4 116 61.5 227.5t150.5 211t214 182.5t251 141q262 118 481 118h28q135 -4 198 -66q41 -42 41 -93q0 -52 -17 -92q-17 -38 -44 -69q-44 -50 -122.5 -93.5t-176.5 -65.5q-14 -4 -26 -4q-31 0 -27 22q0 29 51 35q156 53 247 138q46 44 49 90v12q0 38 -17 58 q-19 22 -46 34q-46 20 -114 21h-5q-67 0 -175 -23q-113 -25 -235 -73t-241.5 -119.5t-217.5 -161.5q-216 -202 -224 -433q-1 -15 -1 -29q0 -181 93 -272q110 -104 350 -104h31q260 4 445 103q143 77 227 204q66 100 66 176q-108 -15 -206.5 -30t-153 -19t-144.5 -12 t-173 -14q-72 -4 -124 -4q-87 0 -119 12q-51 20 -44 37.5t44 13.5h110.5t91 4t122 13t164.5 20.5t172 22.5t197.5 20.5t177 9.5t113.5 -1t48 -26q-2 -20 -30.5 -24t-72.5 -4.5t-87 -6.5q-8 -113 -124 -253q-186 -226 -473 -300q-89 -23 -182 -23q-119 0 -244 38 q-226 69 -316 245q-42 82 -42 187v19z" />
<glyph unicode="H" horiz-adv-x="1103" d="M24 296v57q0 188 12 291q14 118 25 206t21 172t19.5 145.5t9.5 67.5t3 28.5t13 40.5q12 21 33 21t51 -22q20 -16 13 -32t-11 -24q-12 -24 -42 -231t-36 -261.5t-8 -94t-6 -80.5q102 83 590 120q49 4 84.5 7.5t64.5 5.5q7 199 29 357.5t29.5 181t17.5 46t22 42.5 q19 28 40 28q9 0 18 -6q23 -9 23 -27q0 -12 -9 -28q-4 -16 -11 -40q-13 -44 -25.5 -107.5t-18.5 -122t-11.5 -120t-8.5 -117t-5 -85.5q29 -2 56.5 -6t60 -7.5t49.5 -1.5q15 2 15 -16q-1 -4 -1 -6q-2 -24 -10 -24.5t-22 -2.5l-92 -2l-58 -2v-123q0 -237 -24.5 -313 t-49.5 -113q-49 -71 -114 -78q-179 0 -377 127q-109 68 -175.5 151t-92.5 153q-6 -98 -9.5 -176t-5.5 -115t7.5 -61.5t10.5 -41t-16.5 -16.5t-36 8t-23.5 17q-13 22 -15 77t-3 153zM172 504v-6q0 -35 51 -97q191 -229 419 -299q58 -18 101 -18q35 0 60 12q60 33 60 335 q0 40 -1 85q-2 86 -2 131q-47 -2 -94 -3t-71.5 -3t-69.5 -5t-101.5 -10.5t-117 -17.5t-111.5 -26q-116 -35 -123 -78z" />
<glyph unicode="I" horiz-adv-x="1253" d="M-32 345q22 28 24 33t14 11t33 -2q18 -12 9 -26.5t-12 -20.5t-10.5 -26.5t-7.5 -49t13.5 -61.5t52.5 -63q89 -68 286 -74q16 -1 33 0q177 0 315 66q150 72 257.5 188t168 261.5t65.5 273.5q1 15 1 29q0 108 -34 175q-38 76 -98 121q-98 76 -213 81q-19 1 -38 1 q-93 0 -171 -20q-94 -24 -179.5 -68t-156 -98t-122.5 -110q-108 -116 -112 -194v-8q0 -199 375 -211q25 -1 49 -1q132 0 250 32q66 16 103 32.5t49 3t-19 -35.5q-153 -102 -391 -102q-21 0 -43 1q-185 4 -307 80q-123 76 -123 196v15q4 97 121 230q125 142 304 236 q189 100 367 100q13 0 27 -1q101 -4 182.5 -41.5t139.5 -99.5q117 -125 118 -297q0 -10 -1 -20q-7 -185 -80.5 -345.5t-196.5 -282.5q-123 -123 -285 -193q-149 -65 -301 -64h-26q-165 6 -253 43t-132 83q-67 70 -67 131q-1 63 22 92z" />
<glyph unicode="J" horiz-adv-x="1155" d="M-74 -104q0 55 38 123.5t123 126.5q179 123 487 123q32 0 65 -1q144 -8 238 -28q22 192 26 306q5 154 19 282t26 225l-28 -33q-16 -33 -32 -18q-15 13 -9 39q12 52 39.5 117t48.5 116q4 26 31 34q4 1 9 1q12 0 31 -6q43 -13 50 -47q2 -13 -4 -26q-24 -58 -54 -260 q-60 -393 -67 -661q0 -35 -7 -92q70 -23 100.5 -40t33.5 -17q15 -10 15 -27q0 -10 -5 -22q-6 -8 -18.5 -5.5t-18.5 9.5q-16 16 -115 47q-84 -589 -351 -728q-64 -33 -132 -33h-12q-75 3 -164.5 26.5t-170.5 78.5q-192 132 -192 390zM-12 -178q-1 -5 -1 -11q0 -34 21 -81 q25 -54 78 -106q132 -130 338 -144q11 -1 22 -1q126 0 226 117q140 165 184 443q12 76 14 137q-159 31 -294 31q-218 0 -373 -81q-92 -48 -149.5 -125t-65.5 -179z" />
<glyph unicode="K" horiz-adv-x="985" d="M-76 528q4 22 39 38q18 8 40 8t48 -7l4 62q14 233 85 531q14 57 16 61q4 35 17 28.5t36 -20.5t19 -31q-6 -20 -32 -158q-51 -273 -65 -473q227 113 509 321q226 166 435 359h-2q12 6 23 11q12 7 21 7q8 0 13 -5q8 -10 8 -21q0 -9 -5 -18q-276 -276 -488 -422 q-229 -165 -452 -289q356 -157 583 -317q98 -70 128 -104.5t38 -43.5q14 -23 4 -32q-6 -5 -14 -5q-19 0 -51 29q-468 327 -758 412q-2 -59 -3 -122v-118l5 -156q3 -37 -9 -40q-4 -1 -9 -1q-10 0 -25 4q-41 11 -41 41q-10 67 -10.5 168.5t10.5 237.5q-67 0 -95 12 q-23 10 -23 39q0 7 1 14z" />
<glyph unicode="L" horiz-adv-x="1406" d="M-8 160q0 70 62 124q77 66 217 66h16q152 -7 381 -88q69 150 72 506q1 102 1 207v2q0 203 125 323q103 99 245 99h11q123 -4 196 -104q59 -80 59 -185q-1 -7 -1 -15q-4 -114 -45 -200q-74 -156 -171 -223l-38 -27q-37 -18 -49 6q-6 12 0 21.5t38.5 32t78.5 73.5 q118 129 125 277q0 169 -90 235q-41 31 -116 34h-13q-67 0 -116 -28q-54 -32 -89 -86.5t-53.5 -126t-24.5 -150.5t-6 -158t3 -137q1 -22 1 -43q0 -35 -3 -67q-5 -52 -14 -105q-21 -110 -55 -187q109 -41 198 -81t167 -66q188 -62 340 -83q6 0 12 1t10 0t4 -6t-6 -17 q-22 -22 -34 -26q-4 -1 -13 -2q-18 0 -58 7q-58 10 -159.5 38t-193.5 59q-121 40 -301 112q-97 -144 -293 -198q-59 -16 -129 -16q-15 0 -29 1q-153 7 -218 86q-44 52 -44 115zM57 166q0 -52 19 -79q47 -62 180 -67q7 0 14 -1q169 0 297 114q37 33 62 68q-39 14 -74 28.5 t-74 25.5q-87 25 -181 27q-14 0 -27 1q-74 -1 -112 -13q-44 -14 -67 -34q-37 -32 -37 -70z" />
<glyph unicode="M" horiz-adv-x="1918" d="M-152 915q2 12 11 25q88 174 212 292q137 130 289 130h11v-2q119 -4 203 -104q60 -73 99.5 -213t41.5 -314q122 478 306 596q39 25 82 25h6q46 -2 79 -27t56 -63q60 -104 60 -314q0 -68 -6 -147q57 208 154 365q102 167 224 167h7q61 -2 100.5 -41t60.5 -88 q34 -76 34 -168q0 -10 -6 -55t-14.5 -110.5t-18.5 -143.5t-19.5 -150.5t-16.5 -134.5t-13 -118q-3 -28 -3 -55t3 -52q11 -94 37 -125q17 -20 20.5 -26t-3.5 -16q-6 -10 -14 -10h-1q-45 6 -67 37q-50 70 -50 179q0 51 1 162.5t23 241.5t32 240q8 80 7 146q0 25 -1 48 q-10 180 -97 184h-5q-158 0 -304 -455q-47 -148 -56 -219t-14.5 -138t-9.5 -126q-8 -118 -8 -152q-2 -4 -5 -15t-9 -23q-15 -29 -39 -19t-33 21q-10 15 -10 45q0 11 1 23q5 48 10 118q11 151 15 297l7 253q0 392 -113 398h-3q-51 0 -111 -74q-62 -76 -118 -201 q-126 -286 -153 -608q-4 -51 -8 -101q-8 -94 -10 -154l-1 -25q4 -37 -9 -55.5t-48 -15.5t-41 14.5t-2 32.5t10 74.5t12 120.5q15 151 15 225v141q0 441 -140 591q-48 51 -120 51q-41 0 -89 -16q-121 -40 -247 -182q-80 -88 -145 -203q0 -15 -13.5 -21t-23.5 0q-14 7 -14 22 q0 7 3 15z" />
<glyph unicode="N" horiz-adv-x="1388" d="M-266 891q-1 4 -1 9q0 8 2 18q8 43 15.5 56t29 44t57.5 73t82 90t101 88q54 39 114 65q53 23 116 23h14q72 -3 130.5 -41t97.5 -98q70 -104 96 -288q15 -103 16 -220q0 -93 -10 -194q49 238 103.5 369t94 205.5t88.5 133.5q106 124 228 124h8q63 -2 107.5 -41t68.5 -95 q34 -79 34 -168q0 -35 -5 -73q-16 -94 -32 -250q-31 -291 -43 -383q-5 -42 -6 -79q0 -103 40 -167q23 -39 57 -55q7 -2 13 -11q3 -5 3 -11t-3 -13t-19 -7q-8 0 -19 2q-58 9 -91 51t-47 169q-7 61 -8 120q0 63 8 123q16 116 28 193.5t22.5 160.5t14.5 164q1 23 1 45 q0 55 -7 101q-22 145 -119 152h-10q-188 0 -364 -454q-64 -165 -90.5 -294t-37.5 -194q-28 -154 -28 -195q-6 -43 -20.5 -54t-28.5 -7t-34 18.5t-20 38.5q14 83 30.5 240t18.5 232q1 21 1 44q0 56 -4 118q-5 87 -20 178t-44 165q-71 180 -211 180q-47 0 -102 -20 q-122 -44 -220 -149q-119 -127 -155 -199q-10 -14 -13.5 -21.5t-13.5 -15.5q-12 -6 -14 4z" />
<glyph unicode="O" horiz-adv-x="1462" d="M12 342q-36 98 -36 196q0 202 152 406q137 183 332 299q188 112 349 112q11 0 22 -1q23 -2 32 -11.5t8 -13.5q-7 -25 -51 -23q-4 0 -8 1q-42 -1 -110 -23q-74 -24 -159.5 -69.5t-170.5 -112t-156 -148.5q-158 -182 -165 -381q0 -13 -1 -26q0 -180 94 -293 q76 -92 216 -134q97 -30 195 -30q17 -1 33 0q142 0 278 45q152 51 273 146.5t196.5 224.5t81.5 278q1 18 1 36q0 124 -38 202q-43 90 -104 138q-98 76 -231 82q-22 1 -43 1q-186 0 -324 -63q-68 -31 -93.5 -54.5t-37.5 -32.5t-25 1q-23 17 13 53q120 92 297 139 q79 22 172 22q15 0 30 -1v-2q218 -8 346 -157q117 -135 118 -330q0 -12 -1 -25q-6 -152 -84 -295.5t-208 -253.5t-299 -174q-157 -59 -302 -59h-22q-156 5 -247 35t-155.5 76t-105.5 103.5t-62 116.5z" />
<glyph unicode="P" horiz-adv-x="686" d="M-318 998q1 32 37.5 58.5t83.5 53.5t92.5 50.5t88.5 41.5q53 23 176 66q4 18 5 31.5t3 31t8 28.5t14 14q3 1 7 1q9 0 21 -5q18 -7 26 -9t12 -8t4 -18.5t-6 -39.5q196 58 294 63q70 4 129 3h44v-2q174 -4 311 -100q64 -46 100 -105q25 -42 25 -87q0 -18 -4 -36 q-49 -219 -264 -364q-167 -112 -418 -170q-147 -33 -262 -33q-30 0 -57 2l10 -371q0 -10 3 -20.5t1 -17.5q-3 -9 -16 -9q-10 1 -24 5q-36 12 -47 32q-18 34 -18 77q0 13 2 27q2 49 4.5 96.5t4.5 99.5t6 103q-60 33 -60 68q0 10 5.5 17.5t15.5 -1.5q10 -14 43 -22q6 77 6 151 t6 131.5t15.5 120t18.5 124t19 112.5q-38 -6 -123 -44t-140 -69q-154 -88 -159 -127q-1 -8 1 -14q5 -16 -6 -22.5t-18 1t-11 20.5q-9 30 -9 59v6zM152 535q43 -5 89 -5q190 0 419 84q206 77 328 241q61 83 79 179q6 32 6 60q1 53 -23 84q-36 47 -94 72q-84 38 -196 42 q-67 3 -116 2q-32 0 -58 -1q-64 -3 -122 -13q-75 -13 -235 -63q-10 -41 -17 -99.5t-15.5 -125t-16.5 -137.5t-14 -125q-10 -86 -14 -195z" />
<glyph unicode="Q" horiz-adv-x="1488" d="M-35 541q7 207 165 407q138 175 337 290q182 105 316 105h14q16 0 35.5 -4t17.5 -18q-5 -35 -59 -35q-86 0 -246 -82q-314 -161 -443 -414q-49 -98 -59 -215q-2 -30 -2 -59q0 -187 101 -296q118 -126 360 -146q29 -3 60 -3q152 0 326 68q208 82 350 242q153 173 161 395 v19q0 194 -78 304q-100 140 -315 140q-15 1 -29 1q-154 0 -299 -69q-90 -41 -150 -88q-18 -10 -18 0q-4 23 38 62t114.5 73.5t167.5 59.5q81 21 160 21q13 0 26 -1q92 -4 174 -33.5t146 -90.5q141 -132 145 -373v-11q0 -202 -145 -394q-139 -185 -362 -298 q-209 -107 -426 -107q-15 0 -30 1q-267 12 -418 173q-135 144 -135 352v24zM328 163q-4 5 -4 11q0 10 10 23q88 59 246 59q81 0 181 -16q48 -7 77.5 -14t45 -13t27.5 -11t10.5 -11.5t-9.5 -13.5q-29 -23 -57 -23l-19 2q-8 2 -19.5 5t-35.5 8q-150 31 -251 31q-78 0 -128 -18 q-17 -6 -21 -8q-44 -22 -53 -11zM1036 92q7 20 42 32q21 8 34 8q8 0 12 -3q20 -15 146.5 -55.5t146 -46.5t44 -6.5t24.5 -16.5q-4 -27 -56 -27h-14q-104 0 -221 49q-29 13 -57.5 23t-52 18.5t-37.5 10.5q-12 2 -12 10q0 2 1 4z" />
<glyph unicode="R" horiz-adv-x="1226" d="M-233 993v56q0 14 22 28h-2q2 0 34 16.5t90 40.5q163 69 320 107q13 57 23 65q6 6 13 6l7 -1q10 -4 19.5 -16.5t19.5 -24.5l-2 -10q216 45 380.5 45t252.5 -28t144 -70q58 -42 82 -91q18 -36 17 -78q0 -16 -2 -32q-9 -60 -49 -122.5t-98 -113.5q-213 -190 -637 -264 q346 -276 717 -491l66 -38q11 -4 11 -11q0 -6 -9 -13q-28 -24 -47 -24q-6 0 -11 3q-6 2 -89 46.5t-211 123.5q-330 202 -603 449q-11 26 5 28q6 1 12 1h6q37 -6 80 -6q105 0 244 38q205 55 356 168q169 125 176 281v6q0 68 -84 112q-88 46 -238 46q-264 0 -487 -49 q-32 -163 -69.5 -421.5t-45.5 -377.5t-9 -195v-35q0 -49 2 -75q3 -34 3 -39q0 -32 -44 -13q-46 19 -46 41q-3 61 -3 124q0 195 32 417q27 205 58.5 355.5t41.5 199.5q-171 -44 -270 -89.5t-127 -61.5l-27 -17q-10 -4 -13 -4q-11 0 -11 8z" />
<glyph unicode="S" horiz-adv-x="1372" d="M-57 920q4 123 189 223q239 130 641 172q114 12 210 12h2q281 0 398 -131q38 -43 38 -98v-10q-4 -62 -44 -108t-95 -77q-54 -31 -112 -45q-42 -10 -70 -10q-10 0 -17 1q-29 5 -36 17.5t-3.5 24.5t13.5 20.5t20 1.5q14 -4 54 3.5t83 27.5q109 49 119 133q2 14 -8 42 t-50 57q-98 70 -341 73h-30q-293 0 -591 -113q-178 -68 -253 -145q-37 -37 -40 -67q-2 -70 69 -129.5t181 -110.5q129 -60 349.5 -135.5t320.5 -105t185 -65.5t139 -80q52 -42 52 -90q0 -37 -31 -77q-71 -92 -267 -137q-89 -20 -218 -20q-22 0 -46 1q-270 7 -492 131 q-98 53 -168 121q4 21 21.5 21t34.5 -10q147 -96 368 -156q131 -36 262 -36q128 0 256 34q181 49 181 128q1 40 -55 74q-58 34 -144 65.5t-187.5 60t-182.5 57.5t-163 56.5t-160.5 59t-149.5 67.5t-123 77q-109 86 -109 188v7z" />
<glyph unicode="T" horiz-adv-x="833" d="M-166 1132q6 16 25 17q51 2 96 7t89 9t67.5 7.5t77 10.5t127 16t161.5 18.5t177 16.5q150 12 285 12q55 0 108 -2q181 -7 190 -11q21 -35 21 -52v-5q-4 -16 -21 -15q-95 4 -187 4q-214 0 -409 -20q-28 -210 -46.5 -426.5t-20.5 -345.5q-1 -54 -2 -100q0 -65 2 -114 q4 -85 9 -130t5 -54.5t-14 -11.5q-4 -1 -8 -1q-10 0 -22 4q-42 12 -57 50q-8 27 -8 113q0 147 23 465q23 266 38 385t19 160q-106 -12 -207.5 -24.5t-190.5 -22.5q-130 -14 -206 -14q-81 0 -101 16q-22 18 -22 31q1 4 2 7z" />
<glyph unicode="U" horiz-adv-x="868" d="M4 567q-1 22 -1 46q1 131 29 289q34 188 60 288q18 24 44 24q8 0 16 -2q24 -7 34 -32q6 -10 7 -23q-40 -100 -67 -266q-28 -167 -34 -273q-4 -64 -4 -121q0 -38 2 -73q4 -88 28.5 -172t76 -146.5t143.5 -66.5h10q158 0 272 218q84 162 134 441q37 201 37 257v89 q0 88 -9 218q-2 20 6 20h4q12 -6 28 -21.5t29 -34t14 -33t3 -51.5q1 -15 1 -35q0 -72 -11 -216q-14 -185 -60 -358t-117 -301q-144 -260 -339 -260q-13 0 -27 1q-194 18 -261 203q-43 120 -48 391z" />
<glyph unicode="V" horiz-adv-x="776" d="M-23 1183.5q0 28.5 17.5 31t39 -9t38.5 -33.5q18 -20 17 -40v-8q0 -24 4 -80q5 -68 16.5 -165t29 -213.5t43.5 -229.5q58 -257 137 -373q170 500 339 807q124 223 230 319q42 38 67.5 48t34.5 14q3 1 5 1q5 0 9 -7q6 -10 6 -23t-2 -34l-20 -10q-100 -45 -331 -484 q-166 -329 -245 -615q-19 -71 -23 -95.5t-17.5 -32.5t-29.5 -8q-34 0 -55 16q-78 56 -158 341q-87 309 -141 758q-11 97 -11 125.5z" />
<glyph unicode="W" horiz-adv-x="1413" d="M-24 538q-1 29 0 58q0 111 10 213q14 129 36.5 226.5t40.5 129.5q2 8 19.5 6t35.5 -10q46 -21 32 -43q-57 -89 -78 -347q-7 -90 -7 -171q0 -178 33 -316q58 -245 203 -249q124 0 216 138q28 42 52 89q-28 107 -28 221q0 81 14 166q40 267 107 391q23 42 48 42q3 0 7 -1 q57 -12 67 -103q3 -24 4 -52q0 -80 -23 -196q-56 -292 -140 -476q38 -197 176 -197q139 0 262 171q141 196 233 592q48 201 56 303q5 68 5 100q0 16 -1 24q2 6 16 7h4q12 0 26 -5q37 -14 37 -46q-1 -3 -1 -7q-4 -37 -15.5 -110.5t-30 -167t-45 -198t-62.5 -208.5t-81 -199.5 t-101 -168.5q-123 -161 -274 -167h-6q-82 -1 -139 57q-59 60 -94 156q-122 -216 -269 -216q-7 0 -14 1q-121 10 -190.5 93.5t-103 205.5t-37.5 264zM610 356q63 157 84 297q27 175 27 238q0 34 -8 35q-19 0 -63 -166q-41 -153 -41 -316q0 -44 3 -88h-2z" />
<glyph unicode="X" horiz-adv-x="872" d="M-18 16q46 122 235 400q74 108 170 233q-147 280 -237 537q-11 35 34 38q43 2 58 -18v-2q0 -57 209 -475q229 289 512 551q5 5 10 5q8 0 18 -9q24 -19 24 -33q0 -6 -5 -10q-269 -269 -518 -584q252 -484 434 -649q38 -25 13 -43q-13 -10 -36 -10q-20 0 -47 8 q-36 14 -128 142q-163 228 -298 474q-242 -323 -393 -608q-29 3 -45 20q-12 13 -11 25q0 4 1 8z" />
<glyph unicode="Y" horiz-adv-x="870" d="M-18 -506q-4 6 -4 11q0 14 21 27q11 7 23.5 10t12.5 1q49 -83 146 -127q52 -24 102.5 -24t86.5 3t74.5 16.5t78.5 44t75 84.5q78 120 96 345q10 121 15.5 255t11.5 268q-134 -322 -301 -410q-58 -30 -139 -30h-15q-92 3 -155.5 73t-90.5 181q-23 99 -23 220v28 q3 138 29 276q53 290 152 466q10 19 23 19q24 0 61 -68q-98 -177 -152 -448q-32 -166 -32 -300q0 -90 14 -165q42 -217 191 -221h8q198 0 355 343q50 109 87 234q32 414 101 522q20 33 41.5 31t29.5 -14t11 -40q1 -7 1 -15q0 -53 -24 -144q-56 -215 -105 -360 q-2 -70 -2 -152l-2 -346q0 -90 -2 -202.5t-42 -220t-106 -181.5q-129 -146 -305 -146h-18q-146 3 -254 80q-39 27 -57 50.5t-18 25.5z" />
<glyph unicode="Z" horiz-adv-x="1026" d="M-27 68q-1 9 -1 19q0 86 94 219q187 263 600 546q75 51 144 96t121 80q109 73 109 85q0 9 -54 9q-71 0 -236 -16q-406 -40 -604 -104q-48 -15 -60 -29q-18 0 -18 44q0 10 1 23q1 15 5 17v-2q2 0 75.5 24.5t202.5 52.5q316 71 632 70h58q12 -4 34 -22.5t37 -43.5 q19 -31 19 -53q0 -23 -20 -39q-259 -153 -519 -366q-79 -64 -167 -134t-162 -146t-127 -147q-102 -136 -101 -186q0 -10 3 -16q13 -26 52 -25h4q42 2 107.5 14.5t153.5 29t180 19.5q35 1 68 1q55 0 104 -3q150 -9 254 -25l42 -7q8 -4 8 -14q0 -23 -21 -55q-84 22 -243 22 q-131 0 -314 -15q-145 -12 -229 -27t-135 -21h-3q-36 0 -94 125z" />
<glyph unicode="[" horiz-adv-x="757" />
<glyph unicode="\" horiz-adv-x="823" />
<glyph unicode="]" horiz-adv-x="591" />
<glyph unicode="^" />
<glyph unicode="_" horiz-adv-x="1026" d="M10 460q-23 36 88 27q46 -3 182 1t224 6t164 4q154 4 189 4h51q48 0 75.5 -18.5t29 -24.5t-6.5 -11q-12 -10 -35 -10q-8 0 -48 -4t-99 -9q-133 -11 -277 -15l-241 -2q-167 0 -211 6t-59.5 18t-25.5 28z" />
<glyph unicode="`" horiz-adv-x="421" />
<glyph unicode="a" horiz-adv-x="606" d="M4 260q14 128 94 212q62 64 115 64h1q54 -1 76.5 -17.5t32 -37t8.5 -39t-4 -30.5t-10.5 -20.5t-13.5 -10.5t-12 1t-12 5q2 12 2 22q0 27 -14 43q-19 22 -44 22.5t-46 -14t-39 -40.5q-59 -81 -66 -195q-1 -13 0 -24q0 -51 14 -72q18 -25 42 -25t49.5 33t44.5 76 q30 64 48 147q4 18 30 10t37 -17t9 -21l-10 -34q-12 -41 -12 -77q0 -41 16 -75q16 -33 65.5 -33t109.5 56t142 206q15 25 25 -4q3 -8 2 -17q0 -28 -22 -73v-2q-34 -68 -83 -122q-102 -114 -176 -114h-6q-65 0 -110 61q-18 27 -25 62q-78 -133 -141 -133h-4q-47 0 -74 33 q-43 51 -43 136q0 28 4 58z" />
<glyph unicode="b" horiz-adv-x="466" d="M-4 206q6 70 17 138t25 174q35 276 64 584q12 27 32 30q4 1 8 1q15 1 28 -9q16 -12 25.5 -31.5t5.5 -35.5l-15 -67q-93 -397 -106 -734l6 22q30 114 96 193q53 65 120 64h13q81 -10 93 -125q2 -17 2 -36q0 -42 -8 -98q-11 -80 -39.5 -128t-61.5 -78q-61 -56 -107 -56h-8 q-31 3 -57 15q-35 16 -41 22q-18 -21 -34 -21q-23 0 -42 42q-17 52 -17 106q0 14 1 28zM106 137q21 -57 62 -56q2 -1 4 -1q44 4 76.5 33.5t55.5 72.5q50 91 50 187q0 92 -56 92h-5q-113 -10 -187 -326v-2z" />
<glyph unicode="c" horiz-adv-x="512" d="M20 354q37 121 123 178q42 27 93 27h8q56 -2 83 -30.5t27 -74.5t-19.5 -73t-31.5 -40q-20 -22 -39 -22q-10 0 -20 7q-8 6 -5 24.5t14 31.5t18.5 32.5t8.5 37.5q2 40 -32 43h-9q-29 1 -53 -15q-28 -18 -50 -50q-50 -68 -54 -161q0 -10 -1 -20q1 -78 29 -116 q32 -43 111 -44h5q76 0 128 31q54 32 92.5 78t64.5 95t39 71.5t21.5 21.5t11.5 -14q2 -8 2 -17q0 -31 -22 -74h-2q-6 -10 -26.5 -50.5t-61.5 -84.5q-108 -116 -252 -119h-12q-90 0 -149 57q-61 57 -61 150q0 54 21 120z" />
<glyph unicode="d" horiz-adv-x="663" d="M-20 220q6 70 36.5 130t70.5 97.5t79 54.5q35 16 60 16q15 0 26 -6q25 246 94 427q70 184 147 183h9q64 -8 64 -122q0 -51 -13 -124q-29 -166 -139 -462q-33 -93 -84 -178q35 -118 112 -125v-2h9q72 0 151 99q35 44 61.5 91t39 69.5t20.5 20.5t11 -15q2 -10 2 -21 q0 -25 -11 -47q-16 -34 -38.5 -75t-59.5 -85q-90 -107 -178 -107h-11q-107 8 -155 123q-90 -125 -174 -125h-9q-82 0 -112 80q-9 23 -9 64q-1 18 1 39zM55 226q-1 -17 -1 -32q0 -39 8 -61q10 -31 46 -33h3q65 0 147 146q-15 68 -15 149q0 18 1 37q-15 13 -36.5 16t-47 -19.5 t-48.5 -57.5q-53 -83 -57 -145zM307 340l2 2q72 147 98.5 238.5t35.5 121t19.5 87t17.5 111.5q10 76 10 108q0 23 -5 24h-2q-6 0 -18 -10q-14 -12 -33 -48q-48 -94 -81 -229q-46 -194 -46 -343q0 -32 2 -62z" />
<glyph unicode="e" horiz-adv-x="288" d="M-145 297q5 97 67 198q29 45 68 67q19 10 37 11q20 -1 39 -13q37 -24 46 -51.5t5 -58t-16.5 -62.5t-30.5 -76q-37 -95 -105 -175q31 -26 83 -26t97 29.5t81 71.5q40 46 108 165q6 12 14 10t11 -15q2 -8 2 -17q0 -32 -23 -74q-6 -10 -27.5 -50.5t-58.5 -83.5 q-94 -109 -177 -109h-2q-84 1 -124.5 26.5t-62.5 63.5q-32 57 -32 144q0 12 1 25zM-70 201q67 85 84 131.5t25 71t10 44.5q1 8 1 15q0 34 -21 37h-2q-15 0 -35 -28q-21 -30 -38 -76q-30 -80 -30 -143q0 -27 6 -52z" />
<glyph unicode="f" horiz-adv-x="471" d="M-61 -324q20 204 46.5 400t60.5 380q70 379 149 619q9 28 27 28q12 0 29 -13q15 -11 25.5 -30.5t6.5 -33.5q-139 -334 -209 -864q8 2 20 2q23 0 60 -8q55 -12 100 -52q84 10 169 123q34 45 57.5 88.5t32.5 59.5t17.5 14t11.5 -15q2 -8 2 -17q0 -32 -24 -74 q-4 -6 -18.5 -37t-41.5 -69q-72 -99 -161 -124q99 -133 99 -362q0 -38 -3 -78q-20 -268 -134 -388q-42 -44 -98 -44h-5q-59 2 -103.5 40t-72.5 105q-48 112 -48 256q0 45 5 94zM16 -405q2 -136 16 -201q29 -142 120 -146v2h4q143 0 176 394q4 50 4 94q0 219 -107 303 q-40 0 -84 16q-51 9 -79 41q-50 -357 -50 -495v-8z" />
<glyph unicode="g" horiz-adv-x="430" d="M-11 -685q9 99 37.5 186t67.5 167q77 159 174 264q-7 158 -10 199q-37 -68 -96 -103q-19 -10 -41 -10q-13 0 -27 3q-39 9 -63.5 36t-32.5 65q-4 22 -4 47q0 57 24 130q29 92 67 138t67 63q21 11 49 11q11 0 24 -2q61 -10 88 -67l25 45q14 23 34 18q44 -11 29 -36 q-17 -33 -61 -211q-11 -44 -11 -169q0 -42 1 -93q47 39 80 41q4 2 8 -4t5 -15.5t1 -17.5t-22.5 -19.5t-69.5 -58.5q10 -237 10 -329q0 -23 -1 -37q-3 -70 -17.5 -144t-43.5 -140q-68 -157 -186 -161h-3q-45 0 -77 51q-27 43 -27 113q0 19 2 40zM53 -704q-1 -14 -1 -27t1 -27 q5 -69 39 -76q8 -2 14 -2q27 0 50 23q28 29 50 78q46 105 53 220q11 178 11 363q-88 -115 -154 -277q-61 -153 -61 -235q0 -14 -2 -40zM72 129.5q0 -53.5 37 -53.5h3q35 0 66 41q63 82 111 229q-20 -13 -21 0q-2 6 -3 22.5t-4 33.5q-8 44 -33 50q-6 1 -12 1q-19 0 -36 -15 q-22 -18 -42 -49q-43 -69 -51 -114q-15 -92 -15 -145.5z" />
<glyph unicode="h" horiz-adv-x="610" d="M-9 163q6 104 22 192l7 38q0 41 4.5 91t8.5 119t18 208q13 139 57 245q43 104 101 103h2q31 0 56 -21q40 -36 40 -91q0 -12 -2 -25q-19 -139 -219 -651l-14 -205q103 278 182 278q69 0 69 -49q-1 -23 -11 -55q-10 -29 -11.5 -52t-1.5 -56t7 -64q18 -78 79 -78 q75 0 160 112q37 49 106 175q6 12 14.5 10t11.5 -15q2 -9 2 -19q1 -23 -11 -47q-16 -35 -39 -77.5t-59 -88.5q-93 -121 -191 -124h-7q-97 0 -130 84q-18 45 -18 109q0 52 12 117q4 24 -3 26h-1q-19 0 -65 -93q-85 -178 -85 -200.5t-12.5 -29t-27.5 -2.5t-29.5 16t-19.5 39 q-3 17 -3 44q0 17 1 37zM102 598q130 333 130 446q0 7 -1 14q-2 23 -16 25h-2q-34 0 -67 -148q-22 -106 -44 -337z" />
<glyph unicode="i" horiz-adv-x="395" d="M2 260q2 12 5 36q5 41 16 101q12 28 35 27q42 -3 42 -31q0 -2 -5 -25q-13 -62 -13 -127q0 -139 93 -139h7q70 3 153 106q43 53 105 167q6 14 14.5 13t11.5 -14q2 -9 2 -19q0 -23 -12 -47q-16 -35 -38.5 -75t-57.5 -85q-91 -113 -186 -113q-101 0 -148 98q-26 55 -26 103 q0 12 2 24zM6 563q2 14 16 40q13 24 43 24h5l-2 -2q33 -4 39 -30q5 -22 5 -40v-6q-2 -21 -24 -35q-17 -11 -33 -10q-6 0 -12 1q-37 8 -37 58z" />
<glyph unicode="j" horiz-adv-x="251" d="M-451 -496v-11q0 -79 53 -128q56 -53 148 -55q152 0 247 148q65 102 73 280q4 72 6 149q44 12 77 12q16 0 29 -3q6 4 6 9q0 9 -14 23l-24 21h-13q-27 0 -61 -6l-2 155v66q0 128 45 231q11 21 -28 33q-37 11 -42 -4l-2 2q-45 -115 -45 -368v-136q-165 -59 -290 -166 q-154 -130 -163 -252zM-385 -500q4 95 130 205q113 99 257 158q0 -176 -26.5 -260t-57.5 -135q-68 -114 -153 -114q-7 0 -15 1q-91 10 -122 67q-13 23 -13 44v34zM43 565q0 17 13.5 38.5t25.5 30.5q10 7 25 7q5 0 11 -1q42 -5 42 -69q-2 -35 -29 -51q-22 -13 -40 -13 q-5 0 -9 1q-39 7 -39 57z" />
<glyph unicode="k" horiz-adv-x="708" d="M-23 156q0 77 24 240t38 258.5t27 177.5q39 233 41 250q3 28 19 28q58 0 58 -57q0 -20 -16.5 -91t-39.5 -193q-57 -291 -69 -536q6 6 20.5 33t34 63t44 74.5t52.5 70.5q62 71 118 71h6q60 -4 80 -45q14 -28 13 -60q0 -16 -3 -32q-18 -92 -115 -160q-43 -31 -92 -51 q22 -45 70.5 -68t119 -23t132 31t102.5 74t66.5 90t38 69.5t20.5 20.5t11 -15q2 -10 2 -20q0 -23 -11 -47q-16 -34 -37.5 -74t-65.5 -83q-114 -112 -288 -115q-109 0 -167 61q-24 25 -35 48.5t-17 33.5q-3 16 -3 28q0 35 27 42q8 2 29 7t52.5 23.5t54.5 43.5q51 52 51 94v20 q0 43 -45 43q-25 0 -63 -35.5t-76 -91.5q-89 -133 -122 -264q-14 -69 -37 -73q-6 -1 -10 -1q-39 0 -39 140z" />
<glyph unicode="l" horiz-adv-x="389" d="M-127 523.5q0 66.5 10.5 131t27.5 131t43 130t56 113.5q65 106 137 106h5q77 -4 100 -78q14 -47 14 -119q0 -39 -4 -86q-12 -133 -45 -230.5t-75 -184.5q-86 -178 -148 -253q57 -88 147 -88q132 0 249 197q28 47 40 69.5t20.5 20.5t11.5 -15q2 -8 2 -16q0 -31 -24 -73 q-6 -10 -28.5 -51.5t-62.5 -85.5q-97 -107 -215 -107h-15q-227 10 -242 334q-4 88 -4 154.5zM-66 537q-6 -51 -6 -98q0 -108 31 -193q106 147 177 360q24 74 36 154h2q2 20 10.5 69.5t10.5 99.5v22q0 104 -45 108h-3q-28 0 -60 -40q-34 -42 -63 -115q-69 -170 -90 -367z" />
<glyph unicode="m" horiz-adv-x="964" d="M31 318q-2 7 -2 15q0 29 26 77q16 28 38 25q38 -5 59 -56q8 -24 8 -65q0 -20 -2 -45q-6 -74 -8.5 -105t6.5 -33q12 -6 34.5 35t46 93t43 100.5t28.5 63.5t28.5 23.5t39.5 3.5q50 -15 50 -79q0 -12 -3 -49t-5 -77q-1 -29 -1 -50q0 -54 9 -56h1q15 0 67 140q54 145 59 161 q13 32 43 32h5q34 -3 61 -32q4 -6 4 -24q1 -20 -4 -50q-9 -62 -12 -102q-1 -12 -1 -24q0 -27 5 -52q19 -83 87 -86h8q70 0 152 101q35 43 61.5 90t39 69.5t20.5 20.5t11 -15q2 -10 2 -21q0 -24 -11 -47q-16 -34 -38.5 -75t-59.5 -84q-95 -110 -192 -110h-5q-97 4 -129 95 q-17 47 -17 115q0 54 11 121q4 25 0 25q-5 0 -25 -61.5t-35.5 -105.5t-35.5 -81q-45 -86 -88 -86q-57 0 -57 113q0 14 1 30q3 52 3 83q1 21 -1 31q-4 26 -16 26q-11 0 -34 -57.5t-40.5 -98.5t-37.5 -74q-45 -78 -79 -78h-2q-35 2 -46 27t-13 60q-1 14 -1 29q0 22 2 46 q3 40 6 74q2 22 2 39q0 41 -13 41q-6 0 -23 -33q-8 -10 -17 -8t-13 15z" />
<glyph unicode="n" horiz-adv-x="700" d="M34 322q-2 10 -2 20q0 25 14 50q20 36 32 44t26 8q34 0 50 -40q14 -35 15 -71q0 -5 -1 -9q-2 -40 -6 -77.5t-5 -64t15 -30.5h1q29 0 115 231q19 49 27 66q13 33 38 33h4q28 -2 44.5 -20.5t13.5 -45.5t-9 -64q-7 -36 -12 -76q-2 -20 -2 -39t2 -36q12 -83 83 -86h11 q76 0 152 92q36 44 103 166q6 12 15 10q8 -1 11 -15q1 -6 1 -14q0 -10 -2 -24q-4 -24 -14 -44t-32 -58t-56 -78q-87 -101 -183 -101h-6q-92 3 -127 69q-22 40 -22 97v77q0 21 -7.5 23t-19.5 -36.5t-33 -86.5q-53 -122 -113 -122h-3q-61 4 -61 104q0 21 3 47q8 81 8 110v9 q-2 22 -12 22q-4 0 -11 -15t-16 -32q-8 -10 -17 -8t-12 15z" />
<glyph unicode="o" horiz-adv-x="473" d="M-15 164q-2 13 -2 30q0 27 5 65q14 109 71 179q14 17 39 25q14 71 92 78h8q43 0 80 -51q20 -29 32 -75q9 -35 9 -68q-1 -11 -1 -21q-4 -42 -7 -62q38 -12 66 -12q25 0 42 9q68 36 93 81l18 31q12 21 22 5q5 -8 4 -21q0 -14 -5 -35q-36 -82 -128 -118q-30 -11 -69 -11 q-24 0 -51 4h-8q-23 -70 -69 -122q-43 -48 -113 -48h-11q-97 5 -117 137zM53 214q0 -15 1 -36.5t8 -41.5q14 -46 59 -50h7q48 0 89 83q12 24 19 48q-90 50 -123 145q-29 -22 -53 -110q-7 -23 -7 -38zM165 440q-2 -10 -2 -18q0 -19 7 -37q17 -53 78 -92q0 125 -16 153 q-15 26 -33 25h-2q-27 -3 -32 -31z" />
<glyph unicode="p" horiz-adv-x="569" d="M-92 -549q11 132 60 295q75 248 136 383q10 23 20.5 47.5t25.5 52.5q-4 23 -6.5 38.5t-6.5 32.5q-16 73 -37 73h-2q-8 0 -10 -5.5t-7 -17.5q-18 -42 -52 -86q-20 -17 -31.5 -5.5t-11.5 22t21 35.5t26.5 54t11.5 42q13 30 49 34h7q32 0 53 -34q24 -37 39 -95 q102 197 201 197h7q92 -7 123 -86q17 -41 17 -86t-19.5 -100.5t-51.5 -102.5q-71 -105 -146 -105q-6 0 -11 1q-68 7 -90 45q5 -50 5 -148t-5 -243q-14 -193 -38.5 -276t-61.5 -132q-34 -45 -86 -45h-8q-57 4 -84 35t-35 67q-8 35 -8 65q0 26 6 48zM-20 -598q0 -102 40 -102 h3q106 0 139 393q6 85 6 180q0 109 -8 231q-20 -57 -30.5 -83.5t-33 -85t-46.5 -135.5q-70 -229 -70 -398zM207 225q6 -37 6 -73q16 16 23.5 16t12.5 -10.5t12 -21.5q20 -32 57 -33h3q36 0 64 26q29 27 47 65q24 48 34 112q6 43 6 67q0 13 -2 21q-5 22 -16 35q-19 21 -50 25 h-10q-26 0 -48 -16q-27 -20 -52 -52q-44 -58 -87 -161z" />
<glyph unicode="q" horiz-adv-x="677" d="M4 210.5q0 49.5 19.5 104t57.5 104.5q93 122 224 122q35 0 52.5 -19.5t25.5 -29.5q6 10 24.5 3.5t27.5 -18.5t8 -24.5t-6 -24.5t-12 -26.5t-11 -27.5t-16.5 -51t-25.5 -83q-32 -117 -34 -163t31 -42q105 7 220 139q55 64 132 197q6 12 14 10t11 -15q3 -10 3 -21 q0 -20 -11 -43q-17 -36 -35.5 -69.5t-53.5 -76.5q-91 -112 -225 -172q82 -160 82 -353q0 -189 -82 -276q-33 -35 -86 -35q-92 0 -121 126q-14 61 -14 198q9 153 90 549q-47 -66 -93 -95q-42 -25 -76 -25h-7q-37 3 -60.5 20.5t-36.5 38.5q-16 29 -16 78.5zM96 213 q-1 -8 -1 -15q0 -58 44 -63q5 -1 9 -1q56 0 114 77q78 102 78 192v35q7 34 -29 37q-62 0 -127 -67q-77 -79 -88 -195zM292 -308q-7 -75 -7 -131q0 -179 65 -179q52 0 86 88q32 81 32 172q0 115 -50 245q-17 43 -35 74q-2 0 -14.5 -2t-28.5 2q-27 -34 -48 -269z" />
<glyph unicode="r" horiz-adv-x="548" d="M29 344q0 2 4 13.5t8 27.5q12 48 12 71.5t4 47.5t11 44q17 42 39 42h4q20 0 30 -20q15 -26 15 -43t-9.5 -30.5t-2.5 -21.5q11 -13 33 -0.5t35 17t29.5 4.5t30.5 -8.5t18 -20.5q9 -22 6 -47.5t-8 -36t-10 -23.5q-14 -30 -15 -88v-8q1 -54 15 -98q16 -47 76 -47 q91 0 196 176q25 43 37.5 65.5t20.5 20.5t12 -15q3 -9 3 -19q0 -21 -12 -45q-17 -36 -37.5 -74t-54.5 -78q-84 -97 -166 -97h-11v-2q-98 3 -138 91q-24 51 -25 100v16q0 38 4 58q5 24 9.5 41.5t7.5 26.5t-4 14t-12.5 4t-9.5 -5q-14 -14 -30.5 -14t-33 5t-19.5 -9t-14 -37 t-14 -23q-2 -6 -9 -6t-14 3q-13 6 -13 17q0 5 2 11z" />
<glyph unicode="s" horiz-adv-x="481" d="M-25 250q-1 4 -1 7q0 21 28 30q29 9 37 -29q14 -47 37 -80q4 2 11 2t21.5 3t31.5 13q40 25 42 77q1 17 0 33q0 31 -3 53q-5 34 -16 57.5t-23.5 40t-20.5 30.5q-4 -25 -33 -100.5t-31 -81.5t-11 -6t-18 3q-23 8 -16 30q21 54 45.5 126t32.5 97t16.5 49.5t36.5 24.5 q62 0 62 -83v-32q0 -16 21 -82q36 -114 35 -148q1 -3 1 -6q-4 -30 -18.5 -60t-35.5 -49q-41 -35 -77 -35q-7 0 -14 1q45 -43 107 -43t108.5 32t83.5 76q48 57 110 171q6 12 14.5 10t11.5 -15q3 -11 3 -22q0 -22 -12 -46q-17 -34 -39.5 -75t-64.5 -85q-101 -106 -210 -106 h-13q-116 6 -167 67t-72 151z" />
<glyph unicode="t" horiz-adv-x="397" d="M-299 791q0 21 26.5 25t47.5 -1l313 2q13 81 16.5 96t11.5 27q6 8 17 8q5 0 11 -2q20 -6 28 -30.5t6 -38.5l-6 -62l324 2q49 7 49 -24q-5 -35 -68 -35h-315q-4 -27 -8 -57.5t-7.5 -55t-10.5 -62.5t-15 -81q-23 -122 -25 -145.5t1 -59t13 -71.5q23 -89 78 -93q6 -1 12 0 q107 0 198 163q24 42 36 64.5t20.5 20.5t11.5 -15q2 -9 2 -18q0 -22 -12 -47q-16 -35 -34.5 -69.5t-51.5 -71.5q-78 -90 -174 -90h-14q-140 5 -158 210q-3 38 -3 68q1 12 1 22q2 38 56 388h-318q-27 0 -43 10t-16 23z" />
<glyph unicode="u" horiz-adv-x="612" d="M-2 283l13 59q7 31 15 62l19 68q5 18 21 24q8 3 15 3l17 -3q21 -8 21 -31q0 -21 -17 -53q-21 -111 -21 -176q0 -87 38 -93h3q39 0 102 135q29 64 31.5 97t10.5 49q10 43 39 43q6 0 12 -2q31 -8 25 -37q-2 -12 -8 -29q-2 -23 -4 -44q-4 -42 -5 -94v-7q0 -119 70 -125 q8 -1 17 -1q77 0 145 84q31 38 53.5 82t34.5 66.5t20.5 20.5t11.5 -15q2 -7 2 -16q0 -29 -22 -74h-2q-45 -111 -142 -178q-42 -28 -95 -29h-4q-84 0 -127 76q-20 35 -29 78q-31 -84 -87 -130q-25 -20 -55 -20h-8q-35 3 -57 26.5t-37 56.5q-20 46 -20 89q0 19 4 38z" />
<glyph unicode="v" horiz-adv-x="493" d="M-3 398q3 28 17.5 38t29.5 10t26.5 -10t8.5 -27.5t-5 -66.5q-1 -14 -1 -28q0 -36 4 -74q13 -139 54 -146h4q45 0 96 164q-12 29 -12 61q0 7 1 14q3 40 4 74t8.5 56t16.5 39q20 37 36 37q33 -2 37 -39t6 -76v-15q0 -65 -29 -147q16 -10 35.5 -10t45.5 -2q4 0 8 -1 q45 0 91 44q23 20 37 45l21 31q10 21 20 5q5 -8 5 -22t-5 -35q-34 -73 -128 -111q-33 -14 -79 -14q-20 0 -43 3q-12 0 -28 8q-18 -43 -43 -80h2q-25 -37 -48.5 -70t-61.5 -33t-62.5 26t-39 65t-20.5 86t-8 90q-2 48 -2 78q0 21 1 33z" />
<glyph unicode="w" horiz-adv-x="757" d="M0 324q10 76 19.5 101.5t19.5 34.5q16 15 45 3q27 -11 0 -51q-12 -60 -12 -99.5t-1 -69.5t4 -59q12 -73 62 -84q20 -4 41 16.5t36 54.5q32 73 32 138v15q-1 13 -1 24q0 51 15 66q18 17 33 17t29 -17q20 -25 16 -55.5t-6 -46.5q-4 -37 -7 -46.5t-5 -34t2 -53.5 q10 -76 45 -76q57 0 120 154q-23 50 -23 107q0 11 1 22q0 76 49 143q12 17 25 17q46 -4 46 -107q0 -27 -3 -60q-5 -54 -27 -112q16 -10 37 -12t48 -4h8q48 0 93 43q23 20 37 45l19 31q12 21 21 5q4 -7 4 -20q0 -14 -5 -35q-33 -75 -128 -113q-39 -16 -74 -16h-15 q-41 4 -50 8.5t-20 8.5q-27 -61 -61.5 -108.5t-91.5 -47.5h-7q-67 0 -110 94q-56 -102 -133 -102q-91 0 -118 124q-12 53 -12 104q0 27 3 53z" />
<glyph unicode="x" horiz-adv-x="593" d="M27 346q17 70 69 126q17 20 35 20q47 -2 66.5 -48.5t33.5 -101.5q27 52 146 266v2q10 10 24 10q6 0 13 -2q16 -8 13 -24t-7 -21q-46 -57 -164 -286l-4 -11q2 -6 3 -11t14.5 -38.5t45 -73.5t75.5 -40t78 28.5t64 68.5q32 42 101 161q6 12 14 10t11 -15q3 -10 3 -21 q0 -19 -11 -43q-17 -36 -38.5 -72.5t-53.5 -75.5q-85 -103 -156 -104h-3q-69 0 -113 40q-44 41 -77 100q-41 -86 -74 -162t-42 -94q-8 -16 -15 -16h-2q-8 2 -14 10q-17 22 -9 37q20 44 63.5 139t65.5 142q-8 23 -14 47t-12 45q-14 49 -35 49q-14 0 -30.5 -29.5t-25 -46 t-16.5 -16.5t-15 6q-12 10 -12 25q0 9 5 20z" />
<glyph unicode="y" horiz-adv-x="438" d="M-60 -490q13 86 52 170t87 149q79 107 181 177q4 51 16 203q-35 -66 -74 -113q-36 -45 -88 -45h-4q-54 2 -85 53q-27 45 -27 100q0 9 1 18q5 67 14.5 107t20.5 69q21 57 44 57q4 0 8 -2q23 -8 23 -29t-7.5 -45.5t-14.5 -52.5q-15 -62 -15 -109t5 -83t27 -34q74 5 148 170 q20 43 35 80q12 92 39 127q22 30 39 30q3 0 5 -1q19 -6 32 -28q5 -9 5 -22q0 -17 -10 -42l-4 -2q-6 -23 -17 -65t-21.5 -88t-19.5 -89t-9 -69t-7 -58q28 10 56 -18q14 -14 -23 -31q-11 -4 -20.5 -12.5t-20.5 -14.5q-5 -23 -2 -37q-6 -53 -6 -111.5t-3 -113.5t-14.5 -128 t-35.5 -137q-58 -151 -168 -151h-6q-71 4 -112 73q-27 46 -27 105q0 21 3 43zM5 -521v-9q0 -21 4 -42q13 -65 65 -65q73 0 114 103q15 40 21 78t9 51.5t8 56.5t10 90q14 115 14 126q0 20 4 62q-105 -82 -151 -148q-93 -132 -97 -263q0 -14 -1 -40z" />
<glyph unicode="z" horiz-adv-x="354" d="M-46 -725q-24 45 -24 110q0 100 56 248q34 103 164 228q36 35 73 63q-21 83 -61 113l-6 -6q-22 -9 -40 -9q-12 0 -22 4q-26 11 -24 31t30 41q19 14 40 14q11 0 22 -3h-2q39 45 64 159q12 52 12 87q0 31 -10 48q-20 37 -42 40h-5q-33 0 -73 -54q-18 -25 -29 -51 t-22.5 -25.5t-21.5 4.5q-14 6 3 47t41 75q55 78 108 78q4 -1 8 -1q57 -6 89 -48q26 -34 25 -97q0 -14 -1 -29q-7 -84 -36.5 -155.5t-62.5 -112.5q44 -38 67 -113q35 20 70 31q26 4 43 -28q6 -11 6 -20.5t-10 -9.5q-6 1 -13 1q-38 0 -81 -29q13 -68 13 -153q0 -103 -19 -230 q-26 -172 -101 -259q-58 -68 -107 -68q-6 0 -12 1q-73 8 -109 78zM-4 -666q16 -62 63 -65h7q83 0 136 197q33 124 36 234q1 30 1 56q0 70 -6 111q-114 -102 -187 -257q-21 -46 -32 -85q-22 -88 -23 -144q0 -27 5 -47z" />
<glyph unicode="{" />
<glyph unicode="|" />
<glyph unicode="}" />
<glyph unicode="~" />
<glyph unicode="&#xa1;" horiz-adv-x="227" d="M3.5 35.5q-3.5 -33.5 2.5 -62t21 -32.5q16 -2 37.5 16t31.5 86q41 203 58 542q2 50 5 97t6 98l7 119q4 45 -37 55q-38 5 -34 -44q1 -13 1 -19v-2q0 -156 -15 -269.5t-22.5 -176t-16.5 -126t-18 -119.5q-23 -129 -26.5 -162.5zM79 1140.5q1 16.5 16.5 36t41.5 17.5 q27 -2 43.5 -11t14.5 -34.5t-16.5 -49.5t-43.5 -22l2 2q-29 2 -44 23.5t-14 38z" />
<glyph unicode="&#xa2;" horiz-adv-x="550" d="M-1 840.5q3 76.5 30.5 128t68.5 90.5q82 78 174 96q2 16 4.5 41t5.5 49.5t5 45t4 28.5q6 41 33 35q22 -6 22 -43q-19 -89 -24 -152q145 0 153 -117q4 -29 -1 -43t-11 -26t-16.5 -18.5t-19.5 -5.5q-25 3 -3 46q32 75 -32 103q-25 12 -75 8q-119 -8 -184 -71.5t-76 -168.5 q-10 -104 41.5 -144t123.5 -44t122.5 7t106.5 46q10 4 15 -10t-7 -26.5t-29 -22.5q-82 -46 -164 -47q-2 -14 -4 -36t-5 -43q-7 -47 -8 -61q-4 -52 -11 -57q-8 -4 -17.5 4t-10.5 25.5t0 38t2 45l2 49t1 39.5q-106 16 -162.5 75.5t-53.5 136z" />
<glyph unicode="&#xa3;" horiz-adv-x="1050" d="M8 295q0 70 83 119q75 45 145.5 41t106.5 -8.5t65 -10.5q46 -9 122 -41q44 162 2 279l-4 12q-41 2 -74.5 3t-62.5 3t-62.5 2t-60.5 -2q-48 -4 -62.5 -9t-24 -1t-3.5 20q4 16 40 31t78 18t93 3h113q-23 49 -47.5 93t-44.5 87q-48 99 -41.5 165t28 108t53.5 72 q68 62 135.5 58t103.5 -27.5t59 -62.5l24 13q28 11 33 -3q4 -10 -7.5 -12t-17.5 -10l-18 -21q45 -119 -16 -220q-43 -70 -97 -74q-30 -4 -49 38q-34 74 34 182q28 44 64 74q-23 70 -92 74q-71 4 -120 -62q-42 -58 -45 -124t7.5 -107t28 -79.5t41 -78.5t47.5 -85l266 -2 q40 0 42 -19q1 -8 -4 -16t-7 -15q-8 -12 -18 -17t-34 -3q-46 4 -212 4q31 -80 30 -167t-26 -155q132 -62 225 -155q16 -16 33 -33.5t0.5 -33t-33 3t-45.5 42.5q-63 52 -213 109q-43 -53 -130 -91t-188 -39t-171 26.5t-72 103.5zM55 289q0 -47 176 -60q94 0 202 53 q36 17 61 40v2q-181 60 -271 65q-128 0 -159 -67q-9 -19 -9 -33zM662 1024q0 -12 5 -11q12 2 26.5 42.5t15.5 85.5q-25 -37 -36 -71t-11 -46z" />
<glyph unicode="&#xa4;" />
<glyph unicode="&#xa5;" horiz-adv-x="581" />
<glyph unicode="&#xa6;" horiz-adv-x="0" />
<glyph unicode="&#xa7;" />
<glyph unicode="&#xa8;" horiz-adv-x="661" d="M63 569q0 23 18.5 39.5t41.5 13.5t38 -17.5t13 -37.5t-22.5 -38t-43.5 -13q-45 4 -45 53zM66 569q0 23 18 39.5t41 13.5t38 -17.5t13 -37.5t-22.5 -38t-42.5 -13q-45 4 -45 53zM291 569q2 23 21.5 39.5t40 13t34.5 -17.5t14 -37t-20.5 -38t-44.5 -13q-45 4 -45 53z M293 569q2 23 21.5 39.5t40 13t34.5 -17.5t14 -37t-20.5 -38t-44.5 -13q-45 4 -45 53z" />
<glyph unicode="&#xa9;" />
<glyph unicode="&#xaa;" />
<glyph unicode="&#xab;" horiz-adv-x="571" />
<glyph unicode="&#xad;" horiz-adv-x="522" d="M33 424q-22 30 12 39q4 0 23.5 4t47.5 9q51 9 134 16l114 2q55 0 97 -7q27 -8 34 -20q36 -62 -32 -53q-27 3 -141 -3q-219 -10 -234.5 -11t-27 1t-27.5 23z" />
<glyph unicode="&#xae;" />
<glyph unicode="&#xaf;" />
<glyph unicode="&#xb0;" />
<glyph unicode="&#xb1;" />
<glyph unicode="&#xb2;" horiz-adv-x="0" />
<glyph unicode="&#xb3;" horiz-adv-x="0" />
<glyph unicode="&#xb4;" horiz-adv-x="440" d="M217 654.5q-2 17.5 0 21.5q10 19 28 64q37 86 49.5 106.5t23 21t28.5 -23t12 -36.5t-12 -22l-22 -45q-30 -53 -37 -73q-29 -61 -56 -41q-12 10 -14 27.5z" />
<glyph unicode="&#xb6;" />
<glyph unicode="&#xb7;" horiz-adv-x="288" />
<glyph unicode="&#xb8;" />
<glyph unicode="&#xb9;" horiz-adv-x="0" />
<glyph unicode="&#xba;" />
<glyph unicode="&#xbb;" horiz-adv-x="540" />
<glyph unicode="&#xbc;" horiz-adv-x="0" />
<glyph unicode="&#xbd;" horiz-adv-x="0" />
<glyph unicode="&#xbe;" horiz-adv-x="0" />
<glyph unicode="&#xbf;" horiz-adv-x="823" d="M-25 -168q0 119 120 220q93 78 309 170q173 73 192 200q4 36 -6 47.5t-14.5 15.5t-2.5 11q8 12 20.5 12t34.5 -10q33 -15 28 -85.5t-31.5 -109.5t-69.5 -71q-69 -53 -160.5 -92t-144.5 -71t-100 -72q-107 -92 -107 -190q0 -77 61 -119q50 -36 144 -35t174 21.5t144 56.5 q98 54 227 181q23 23 42 48.5t34 21.5t19.5 -17.5t2.5 -28.5q-4 -31 -27 -59q-251 -293 -614 -303q-113 -4 -194 69.5t-81 188.5zM548 742q6 49 52 49q20 -2 38.5 -22.5t16.5 -43t-25.5 -36t-40 -10.5t-30.5 21.5t-11 41.5z" />
<glyph unicode="&#xc0;" />
<glyph unicode="&#xc1;" horiz-adv-x="1505" d="M-98 270q-4 -8 3 -48t36 -90q74 -127 213 -134q126 -7 280 138q110 102 199 237q153 19 249.5 22.5t174.5 5.5t139 5q97 -408 186 -504q22 -29 71 -14q17 6 27.5 15t2.5 17q-100 175 -191 486l54 4q12 0 31.5 11t30.5 23q29 33 -22 37q-16 2 -46 2h-70q-92 349 -101 670 q0 93 -9 108q-14 23 -64 25t-65 -5t-21 -18.5t-8.5 -24.5t-6.5 -21l-31 -67q-162 -356 -284 -546q-25 -39 -51.5 -81t-55.5 -87q-49 -8 -94 -15q-157 -24 -172 -32q-31 -15 -24 -43q6 -24 27 -24t36 6q0 -2 48 7t122 21q-100 -134 -159 -185q-115 -97 -205 -97 q-103 -3 -158 94q-23 41 -31 96h-2q-7 21 -26 23q-26 3 -33 -17zM682 453l373 677q47 -326 125 -649q-294 -12 -331 -13q-62 -2 -167 -15zM1118 1456q11 22 29 66q34 81 47.5 103t24 23t28.5 -23t12 -37t-12 -21l-22 -45q-28 -51 -37 -74q-29 -61 -55 -41q-12 10 -14.5 27.5 t-0.5 21.5z" />
<glyph unicode="&#xc2;" />
<glyph unicode="&#xc3;" />
<glyph unicode="&#xc4;" />
<glyph unicode="&#xc5;" />
<glyph unicode="&#xc6;" />
<glyph unicode="&#xc7;" horiz-adv-x="1193" d="M-10 428q8 206 164 408q153 200 391 318q253 126 508 118q147 0 243 -58q80 -47 80 -133q0 -84 -76 -177q-50 -62 -117 -110.5t-94.5 -64.5t-35.5 -21t-25.5 -11.5t-35.5 -8.5q-46 -5 -59 21.5t1 32.5t45 16q172 78 265 188q50 60 54 131q4 65 -90 99q-49 18 -149 22 q-188 6 -362.5 -60.5t-310.5 -177t-220 -251t-90 -283.5q0 -6 -2 -42t6 -85t29.5 -105.5t68.5 -105.5q109 -114 322 -121q228 -10 486 89q206 80 390 218q21 14 31 -4q0 -37 -66 -98q-177 -133 -451 -224q-126 -42 -263 -52q8 -6 26.5 -33t5.5 -74h-2q-12 -57 -61 -82 q-27 -14 -55.5 -14t-56.5 7q-46 12 -72.5 30t-24.5 27t6 14q11 4 39 -15q63 -38 121 -14q33 18 42 54t-2 50t-30.5 23.5t-23.5 13.5t-6.5 5t-4.5 6h-4q-245 0 -388 128q-157 142 -146 406z" />
<glyph unicode="&#xc8;" />
<glyph unicode="&#xc9;" horiz-adv-x="1515" d="M2 272q-7 -177 201 -274q161 -75 371 -81q350 -11 651 116q129 55 223 129q25 25 16.5 31t-27 -6.5t-83 -42t-176.5 -63.5q-288 -88 -600 -81q-280 7 -411 118q-52 44 -67.5 89t-15.5 70.5t24.5 79t83.5 115.5q141 152 402 233q151 5 234 13.5t97.5 8.5t60.5 9t94 24 q124 41 124 78q0 49 -264 16q-198 -26 -412 -104q-252 7 -338 76q-30 24 -30 60t45 78t119.5 84t175 81.5t214.5 69.5q331 88 591 47q82 -13 93 -38q5 -12 5 -22t-42 -46t-130 -59q-6 -2 -18.5 -4t-22.5 -6q-38 -15 10 -51q17 -12 43 -4t65.5 22.5t77.5 37.5q98 56 101 118 q0 80 -131 120q-123 39 -370 11q-252 -28 -488 -114q-238 -87 -348 -205q-54 -58 -56 -121h-2q-7 -158 332 -178q-290 -139 -387 -313q-33 -60 -35 -122zM905 1450q11 22 29 66q34 81 47.5 103t24 22.5t28.5 -23t12 -36.5t-12 -21l-22 -45q-28 -51 -37 -74q-29 -61 -55 -41 q-12 10 -14.5 27.5t-0.5 21.5z" />
<glyph unicode="&#xca;" />
<glyph unicode="&#xcb;" />
<glyph unicode="&#xcc;" />
<glyph unicode="&#xcd;" horiz-adv-x="1253" d="M-54 285.5q-1 -31.5 11 -74.5t56 -89q111 -116 370 -126q180 -6 342 64.5t285 192.5t196.5 282.5t79.5 332.5q8 197 -116 330q-125 133 -322 141q-101 4 -202 -23.5t-192.5 -75.5t-169 -109.5t-134.5 -126.5q-182 -208 -92 -351q67 -105 232 -147q170 -45 352 -14 q143 25 215 70q30 18 36 22q31 23 18.5 36t-49 -3t-96.5 -31q-153 -40 -321 -33.5t-265.5 60t-93.5 159.5q4 78 112 194q115 124 278 208q254 130 480 68q147 -39 220 -183q38 -76 33 -204t-65.5 -273.5t-168 -262t-258 -188.5t-334.5 -65q-210 7 -299 74q-66 50 -66 124 q0 48 30 96q9 15 -9 27q-36 14 -49 -12q0 -2 -21.5 -30t-22.5 -59.5zM946 1456q11 22 29 66q34 81 47.5 103t24 23t28.5 -23t12 -37t-12 -21l-22 -45q-28 -51 -37 -74q-29 -61 -55 -41q-12 10 -14.5 27.5t-0.5 21.5z" />
<glyph unicode="&#xce;" />
<glyph unicode="&#xcf;" />
<glyph unicode="&#xd0;" horiz-adv-x="0" />
<glyph unicode="&#xd1;" horiz-adv-x="1329" d="M-266 891q-2 10 1 27q8 43 15.5 56t29 44t57.5 73t82 90t100.5 88t114 65.5t131 22.5t130 -41t97.5 -98q70 -104 96.5 -288t5.5 -414q49 238 103.5 369t94 205.5t88.5 133.5q109 128 236 124q63 -2 107.5 -41t68.5 -95q48 -110 29 -241q-16 -94 -32 -250 q-31 -291 -43 -383q-19 -158 34 -246q23 -39 57 -55q6 -2 12.5 -11t0.5 -24q-5 -10 -38 -5q-58 9 -91 51t-47.5 169t1 243.5t27.5 193.5t22.5 160t14.5 164t-6 146q-22 145 -119 152q-194 13 -374 -454q-64 -165 -90.5 -294t-37.5 -194q-28 -154 -28 -195q-6 -43 -20.5 -54 t-28.5 -7t-34 18.5t-20 38.5q14 83 30.5 240t18.5 232t-3 162t-20 178t-44 165q-95 241 -313 160q-122 -44 -220 -149q-119 -127 -155 -199q-10 -14 -13.5 -21.5t-13.5 -15.5q-12 -6 -14 4zM302 1490q-18 26 12 43q86 48 147.5 48t114.5 -15.5t98 -32.5t87 -32.5t96 -15.5 t98 17.5t83 38t77 37.5t75 16t35 -21.5t-40 -20.5t-72 -18t-69 -42q-89 -60 -188 -60q-71 0 -163.5 33.5t-142.5 49t-92 15.5q-63 0 -124 -39q-23 -14 -32 -1z" />
<glyph unicode="&#xd2;" />
<glyph unicode="&#xd3;" horiz-adv-x="1462" d="M12 342q78 -215 323 -296q91 -30 246.5 -35t324.5 58.5t299 174t208 254t83 271.5t-25.5 219t-90.5 160q-126 147 -346 157v2q-187 7 -360 -76q-135 -64 -154 -105q-12 -23 6 -34q12 -12 48 22.5t98 63.5q155 72 364 65q243 -11 344 -220q43 -89 37 -239t-81.5 -278.5 t-196.5 -224t-273.5 -146.5t-310.5 -45q-168 0 -309 79q-122 68 -172 216q-27 78 -23 186t49 204.5t116 178.5t156 148.5t170 111.5q181 97 283 93q31 -2 38 8t7 14q2 4 -7 13.5t-63.5 12.5t-150.5 -27t-189 -85t-179 -132t-153 -167q-225 -303 -116 -602zM1042 1473 q5 10 27 59q42 96 52.5 113.5t21 18.5t28.5 -23t12.5 -37t-12.5 -21l-22 -45q-30 -54 -37 -74q-29 -61 -55 -41q-12 10 -14.5 28t-0.5 22z" />
<glyph unicode="&#xd4;" />
<glyph unicode="&#xd5;" />
<glyph unicode="&#xd6;" />
<glyph unicode="&#xd7;" horiz-adv-x="0" />
<glyph unicode="&#xd8;" />
<glyph unicode="&#xd9;" />
<glyph unicode="&#xda;" horiz-adv-x="868" d="M4 567q-6 148 27.5 335.5t60.5 287.5q24 32 60 22q24 -7 34 -32q6 -10 7 -23q-40 -100 -67.5 -266t-33.5 -272.5t-2 -194.5t28.5 -172t76 -146.5t143.5 -66.5q164 -7 282 218q84 162 134 441q37 201 37 257v89q0 88 -9 218q-2 25 10.5 19.5t28 -21t28.5 -34t14 -33 t3 -51.5q4 -66 -10 -251t-60 -358t-117 -301q-154 -278 -366 -259q-194 18 -261 203q-43 120 -48 391zM498 1334.5q-2 17.5 0 21.5t12 27.5t22 52.5q33 73 44 92t21.5 19.5t29.5 -21.5q18 -25 12 -38t-12 -22l-23 -45q-30 -53 -37 -73q-29 -61 -55 -41q-12 10 -14 27.5z" />
<glyph unicode="&#xdb;" />
<glyph unicode="&#xdc;" />
<glyph unicode="&#xdd;" horiz-adv-x="0" />
<glyph unicode="&#xde;" horiz-adv-x="0" />
<glyph unicode="&#xdf;" horiz-adv-x="675" />
<glyph unicode="&#xe1;" horiz-adv-x="606" d="M4 260q14 128 94 212q63 65 116.5 64t76 -17.5t32 -37t8.5 -39t-4 -30.5t-10.5 -20.5t-13.5 -10.5t-12 1t-12 5q7 43 -12 64.5t-44 22.5t-46 -13.5t-39 -40.5q-59 -81 -66 -195q-4 -71 14 -96t42 -25t49.5 33t44.5 76q30 64 48 147q4 18 30 10t37 -17t9 -21l-10 -34 q-26 -89 4 -152q16 -33 65.5 -33t109.5 56t142 206q14 25 24.5 -4t-19.5 -90v-2q-34 -68 -83 -122q-102 -114 -176 -114q-69 -3 -116 61q-18 27 -25 62q-81 -138 -145 -133q-47 0 -74 33q-57 67 -39 194zM279 656.5q-2 17.5 0 21.5t12 27.5t23 52.5q34 78 44 94.5t20.5 17 t29.5 -21.5q18 -25 12 -38t-12 -22l-23 -45q-30 -53 -37 -73q-29 -61 -55 -41q-12 10 -14 27.5z" />
<glyph unicode="&#xe9;" horiz-adv-x="288" d="M-141 211q13 -99 90 -147q41 -25 104 -26t112.5 32.5t86.5 76.5t58.5 83t32.5 61t15 44t1 36.5t-11 15.5t-20 -20.5t-39 -67.5t-63 -87t-81 -71.5t-97 -29.5t-83 26q69 82 113 193q10 27 22.5 58.5t16.5 61.5q9 72 -47 107q-41 27 -80 5.5t-68 -67.5q-83 -135 -63 -284z M-70 201q-19 80 24 195q40 108 75 104q40 -6 10 -96q-8 -25 -19 -56q-23 -66 -90 -147zM94 676q10 19 28 64q37 86 49.5 106.5t23 21t28.5 -23t12 -36.5t-12 -22l-22 -45q-30 -53 -37 -73q-29 -61 -55 -41q-12 10 -14.5 27.5t-0.5 21.5z" />
<glyph unicode="&#xed;" horiz-adv-x="395" d="M0 258q2 12 5 35.5t7 48.5t8 53q12 28 35 27q43 -3 43 -31q0 -2 -5 -25q-13 -62 -13 -128q0 -143 100 -138q70 3 153 106q43 53 105 167q6 14 14.5 13t11.5 -14q7 -31 -9.5 -66t-39 -75.5t-57.5 -84.5q-92 -113 -186 -113q-101 0 -148 98q-32 69 -24 127zM94 553 q11 22 29 65q34 82 47.5 104t24 22.5t28.5 -23t12 -36.5t-12 -21l-22 -46q-30 -53 -37 -73q-29 -61 -55 -41q-12 10 -14.5 27.5t-0.5 21.5z" />
<glyph unicode="&#xf0;" horiz-adv-x="0" />
<glyph unicode="&#xf1;" horiz-adv-x="700" d="M34 322q-8 34 11.5 70t32 44t26.5 8q35 0 50.5 -40t13.5 -80.5t-6 -77.5t-5 -63.5t15 -30.5q28 -5 116 231q19 49 27 66q14 35 42 32.5t44.5 -20.5t13.5 -45t-9.5 -64t-11.5 -76.5t0 -74.5q12 -83 83 -86q81 -7 163 92q36 44 103 166q6 12 14.5 10t11.5 -15.5t-1 -37 t-14 -44t-32 -58.5t-56 -78q-89 -104 -189 -101q-92 3 -127 69q-22 40 -22 97v77q0 21 -7.5 23t-19.5 -36.5t-33 -86.5q-54 -125 -116 -122q-74 5 -58 151q10 97 8 119t-12 22q-4 0 -11 -15t-16 -32q-8 -10 -17 -8t-12 15zM80 592q12 25 36.5 31t49.5 8q37 -2 59.5 -19.5 t48.5 -16.5q52 2 82 34q8 8 19.5 7t17.5 -7t7 -17.5t-16 -27.5q-41 -42 -114 -39q-35 2 -57.5 18.5t-37.5 15.5q-43 -3 -50 -10q-11 -23 -26 -15q-29 14 -17 38h-2z" />
<glyph unicode="&#xf3;" horiz-adv-x="473" d="M-16 221q-9 -56 12 -103q38 -87 111 -91t119 48t69 122h8q122 -17 197 53q33 31 51 72q10 41 1 56t-22 -5l-18 -31q-25 -45 -67.5 -67.5t-72.5 -21.5t-61 11q4 20 7 62.5t-8 88.5t-32 75q-40 56 -85 51q-81 -7 -95 -78q-25 -8 -41 -28q-56 -69 -73 -214zM53 195.5 q0 33.5 6.5 57t15.5 45.5q23 54 38 64q35 -96 123 -145q-11 -45 -35 -78q-43 -57 -74 -54t-45 16.5t-20 34.5q-9 26 -9 59.5zM165 440.5q5 28.5 32 30.5q18 2 28.5 -15.5t15.5 -43.5q7 -38 7 -119q-61 39 -78 92q-10 27 -5 55.5zM238 654.5q-2 17.5 0 21.5t12 27.5t22 52.5 q35 78 45 94.5t20.5 17t29.5 -21.5q18 -25 12 -38t-12 -22l-23 -45q-30 -53 -37 -73q-29 -61 -55 -41q-12 10 -14 27.5z" />
<glyph unicode="&#xf7;" />
<glyph unicode="&#xfa;" horiz-adv-x="612" d="M-2 283l13 59q7 31 15 62l19 68q5 19 21 24.5t32 -0.5q40 -15 4 -84q-50 -260 17 -269q40 -5 105 135q29 64 31.5 97t10.5 49q12 51 51 41q31 -8 25 -37q-2 -12 -8 -29q-2 -23 -4 -44q-4 -42 -5 -94q-2 -125 70 -132q86 -10 162 83q31 38 53.5 82t34.5 66.5t20.5 20.5 t11.5 -15q8 -32 -20 -90h-2q-45 -111 -142 -178q-42 -28 -95 -29q-87 -2 -131 76q-20 35 -29 78q-31 -84 -87 -130q-28 -23 -63 -20t-57 26.5t-37 56.5q-30 68 -16 127zM199 613.5q-2 17.5 0 21.5t12 27.5t23 51.5q34 79 44 95.5t20.5 17t29.5 -21.5q18 -25 12 -38t-12 -22 l-23 -45q-30 -53 -37 -73q-29 -61 -55 -41q-12 10 -14 27.5z" />
<glyph unicode="&#xfc;" horiz-adv-x="612" d="M-2 283l13 59q7 31 15 62l19 68q5 19 21 24.5t32 -0.5q40 -15 4 -84q-50 -260 17 -269q40 -5 105 135q29 64 31.5 97t10.5 49q12 51 51 41q31 -8 25 -37q-2 -12 -8 -29q-2 -23 -4 -44q-4 -42 -5 -94q-2 -125 70 -132q86 -10 162 83q31 38 53.5 82t34.5 66.5t20.5 20.5 t11.5 -15q8 -32 -20 -90h-2q-45 -111 -142 -178q-42 -28 -95 -29q-87 -2 -131 76q-20 35 -29 78q-31 -84 -87 -130q-28 -23 -63 -20t-57 26.5t-37 56.5q-30 68 -16 127zM66.5 607.5q3.5 21.5 22.5 34.5t40.5 9t34 -20.5t9.5 -39t-24.5 -34.5t-43 -8t-32 20.5t-7 38zM68 606 q4 23 23 36t40.5 9t34 -20.5t9.5 -39t-24.5 -34.5t-42.5 -8q-45 8 -40 57zM293 583q4 22 24.5 35t41 8.5t34 -20.5t10 -39t-25 -34t-45 -8t-33.5 19.5t-6 38.5zM295 583q4 22 24.5 35t41 8.5t34 -20.5t10.5 -39t-25 -34t-45.5 -8t-33.5 19.5t-6 38.5z" />
<glyph unicode="&#xfd;" horiz-adv-x="0" />
<glyph unicode="&#xfe;" horiz-adv-x="0" />
<glyph unicode="&#xff;" horiz-adv-x="579" />
<glyph unicode="&#x152;" />
<glyph unicode="&#x153;" horiz-adv-x="825" />
<glyph unicode="&#x178;" />
<glyph unicode="&#x2c6;" horiz-adv-x="593" />
<glyph unicode="&#x2dc;" horiz-adv-x="684" />
<glyph unicode="&#x2000;" horiz-adv-x="832" />
<glyph unicode="&#x2001;" horiz-adv-x="1664" />
<glyph unicode="&#x2002;" horiz-adv-x="832" />
<glyph unicode="&#x2003;" horiz-adv-x="1664" />
<glyph unicode="&#x2004;" horiz-adv-x="554" />
<glyph unicode="&#x2005;" horiz-adv-x="416" />
<glyph unicode="&#x2006;" horiz-adv-x="277" />
<glyph unicode="&#x2007;" horiz-adv-x="277" />
<glyph unicode="&#x2008;" horiz-adv-x="208" />
<glyph unicode="&#x2009;" horiz-adv-x="332" />
<glyph unicode="&#x200a;" horiz-adv-x="92" />
<glyph unicode="&#x2010;" horiz-adv-x="522" d="M33 424q-22 30 12 39q4 0 23.5 4t47.5 9q51 9 134 16l114 2q55 0 97 -7q27 -8 34 -20q36 -62 -32 -53q-27 3 -141 -3q-219 -10 -234.5 -11t-27 1t-27.5 23z" />
<glyph unicode="&#x2011;" horiz-adv-x="522" d="M33 424q-22 30 12 39q4 0 23.5 4t47.5 9q51 9 134 16l114 2q55 0 97 -7q27 -8 34 -20q36 -62 -32 -53q-27 3 -141 -3q-219 -10 -234.5 -11t-27 1t-27.5 23z" />
<glyph unicode="&#x2012;" horiz-adv-x="522" d="M33 424q-22 30 12 39q4 0 23.5 4t47.5 9q51 9 134 16l114 2q55 0 97 -7q27 -8 34 -20q36 -62 -32 -53q-27 3 -141 -3q-219 -10 -234.5 -11t-27 1t-27.5 23z" />
<glyph unicode="&#x2013;" horiz-adv-x="679" />
<glyph unicode="&#x2014;" horiz-adv-x="2066" />
<glyph unicode="&#x2018;" horiz-adv-x="198" />
<glyph unicode="&#x2019;" horiz-adv-x="198" />
<glyph unicode="&#x201a;" />
<glyph unicode="&#x201c;" horiz-adv-x="374" d="M37 1178q4 45 33 34q11 -6 30 -34l2 2q6 -78 13.5 -138.5t11.5 -111.5t6 -62q4 -47 -29 -51q-31 0 -43 57q-8 54 -16 173.5t-8 130.5zM152 1174q-4 23 11 26.5t31.5 6.5t20.5 -9t6 -21t7 -57.5t12 -105.5q17 -156 22 -168q4 -10 -2 -27.5t-22 -19.5q-30 -4 -43 26 q-7 14 -18 124t-17 162t-6 63h-2z" />
<glyph unicode="&#x201d;" horiz-adv-x="374" d="M14 854q0 4 4.5 30.5t10.5 64.5t13 81t13 82q10 68 17.5 96.5t19.5 26.5t29 -12q16 -10 16 -21v-20l-57 -348q-2 -4 -12.5 -17.5t-25.5 -7.5q-28 11 -28 45zM135 851q2 15 7 43t12.5 64.5t15.5 77.5q19 97 26.5 126.5t8.5 35.5q8 23 35 16q31 -4 26 -40 q0 -30 -26.5 -162.5t-30.5 -150.5t-14.5 -39t-33 -12t-25.5 17.5t-1 23.5z" />
<glyph unicode="&#x201e;" horiz-adv-x="512" />
<glyph unicode="&#x2022;" horiz-adv-x="378" />
<glyph unicode="&#x2026;" horiz-adv-x="1781" />
<glyph unicode="&#x202f;" horiz-adv-x="332" />
<glyph unicode="&#x2039;" horiz-adv-x="450" />
<glyph unicode="&#x203a;" horiz-adv-x="423" />
<glyph unicode="&#x205f;" horiz-adv-x="416" />
<glyph unicode="&#x2122;" />
<glyph unicode="&#xe000;" horiz-adv-x="624" d="M0 0v625h625v-625h-625z" />
<glyph unicode="&#xfb01;" horiz-adv-x="923" />
<glyph unicode="&#xfb02;" horiz-adv-x="1105" />
</font>
</defs>
</svg>
